<?xml version="1.0" encoding="utf-8"?>
<!-- Generator: Adobe Illustrator 25.0.0, SVG Export Plug-In . SVG Version: 6.00 Build 0)  -->
<svg version="1.1" xmlns="http://www.w3.org/2000/svg" xmlns:xlink="http://www.w3.org/1999/xlink" x="0px" y="0px"
	 viewBox="0 0 681.86 136" enable-background="new 0 0 681.86 136" xml:space="preserve">
<g id="Layer_4">
	<g>
		<linearGradient id="SVGID_1_" gradientUnits="userSpaceOnUse" x1="65.826" y1="44.9572" x2="122.1272" y2="70.7788">
			<stop  offset="0.2873" style="stop-color:#00B6FF"/>
			<stop  offset="0.3763" style="stop-color:#00B4FC"/>
			<stop  offset="0.4521" style="stop-color:#00ACF1"/>
			<stop  offset="0.523" style="stop-color:#00A0E0"/>
			<stop  offset="0.5911" style="stop-color:#008EC7"/>
			<stop  offset="0.657" style="stop-color:#0077A7"/>
			<stop  offset="0.7213" style="stop-color:#005B7F"/>
			<stop  offset="0.7844" style="stop-color:#003A51"/>
			<stop  offset="0.845" style="stop-color:#00141C"/>
			<stop  offset="0.8744" style="stop-color:#000000"/>
		</linearGradient>
		<path fill="url(#SVGID_1_)" d="M111.68,52.41c-0.62-1.01-0.49-1.52-1.64-1.69c-29-4.22-46.62-26.25-50.98-32.85
			c-0.78-1.18-2.1-1.78-3.47-1.56c-1.39,0.22-2.49,1.23-2.88,2.62c-1.82,6.57-4.93,18.4,1.64,37.32c0.13,0.36,0.4,0.66,0.75,0.81
			c18.31,6.34,30.95,7.22,46.79,1.57c1.38-0.7,2.69,1.09,1.59,2.18c-10.99,10.88-28.19,7.6-42.12,3.72
			c-1.48-0.41-2.44,1.6-1.15,2.44c0.07,0.05,0.14,0.08,0.21,0.11c9.63,3.62,18.14,5.43,25.45,5.43c5.32,0,10.01-0.96,14.04-2.88
			c7.9-3.77,11.02-10.17,12.18-13.65C112.48,54.77,112.34,53.48,111.68,52.41z"/>
		<linearGradient id="SVGID_2_" gradientUnits="userSpaceOnUse" x1="56.7412" y1="20.0475" x2="56.7415" y2="20.0475">
			<stop  offset="0" style="stop-color:#00B6FF"/>
			<stop  offset="0.1277" style="stop-color:#009CDA"/>
			<stop  offset="0.5464" style="stop-color:#004966"/>
			<stop  offset="0.8346" style="stop-color:#00141D"/>
			<stop  offset="0.9673" style="stop-color:#000000"/>
			<stop  offset="0.972" style="stop-color:#100324"/>
			<stop  offset="0.9859" style="stop-color:#3F0B8A"/>
			<stop  offset="0.9955" style="stop-color:#5C10CA"/>
			<stop  offset="1" style="stop-color:#6712E3"/>
		</linearGradient>
		<polygon fill="url(#SVGID_2_)" points="56.74,20.05 56.74,20.05 56.74,20.05 		"/>
	</g>
</g>
<g id="Layer_3">
	<g>
		<g>
			<linearGradient id="SVGID_3_" gradientUnits="userSpaceOnUse" x1="547.3916" y1="73.7006" x2="702.5751" y2="73.7006">
				<stop  offset="0" style="stop-color:#00EBFF"/>
				<stop  offset="0.1081" style="stop-color:#0CD1FC"/>
				<stop  offset="0.5494" style="stop-color:#3D6BEF"/>
				<stop  offset="0.856" style="stop-color:#5B2BE6"/>
				<stop  offset="1" style="stop-color:#6712E3"/>
			</linearGradient>
			<path display="none" fill="url(#SVGID_3_)" d="M151.04,55.12l5.62-1.69l-10.29-5.11l0.07-1.37c0-0.05,0.24-5.93-2.35-12.04
				c-3.38-7.96-9.84-12.62-19.2-13.85c-18.04-2.37-22.52,11.88-24.54,26.13c-0.12,0.87-0.23,1.61-0.34,2.24L100,49.56l-0.04,0.13
				c-2.78,9.13-8.28,15.38-16.33,18.57C59.7,77.76,19.62,57.3,6.05,49.67C7.9,58.98,14.39,85,31.45,100.82l1.87,1.74l-2.08,1.49
				c-7.9,5.67-21.24,15.32-29.77,21.5l27.7-5.91l0.51,0.16c0.14,0.04,14.22,4.25,31.86,6.03c16.09,1.62,38.53,1.51,54.03-8.27
				c12.38-7.81,20.95-19.26,25.47-34.02c3.4-11.1,3.1-20.02,3.1-20.11l-0.06-1.55l11.75-4.05L151.04,55.12z"/>
			<linearGradient id="SVGID_4_" gradientUnits="userSpaceOnUse" x1="25.2972" y1="24.3255" x2="143.4349" y2="149.1172">
				<stop  offset="6.592621e-03" style="stop-color:#00EBFF"/>
				<stop  offset="0.1214" style="stop-color:#02DDFB"/>
				<stop  offset="0.3395" style="stop-color:#06B7F1"/>
				<stop  offset="0.343" style="stop-color:#06B6F1"/>
				<stop  offset="0.4397" style="stop-color:#09B3F0"/>
				<stop  offset="0.5195" style="stop-color:#11A9EE"/>
				<stop  offset="0.5932" style="stop-color:#1F97EA"/>
				<stop  offset="0.6633" style="stop-color:#327FE5"/>
				<stop  offset="0.7302" style="stop-color:#4B60DE"/>
				<stop  offset="0.791" style="stop-color:#673DD6"/>
			</linearGradient>
			<path fill="url(#SVGID_4_)" d="M181.91,55.94l-17.24-8.57c-0.01-0.01-0.02-0.02-0.02-0.04c-0.06-2.33-0.47-7.19-2.61-12.31
				c-2.73-6.54-8.87-14.72-22.56-16.51c-10.56-1.39-18.46,2.12-23.46,10.42c-3.96,6.57-5.09,14.52-5.76,19.27
				c-0.11,0.77-0.2,1.44-0.29,1.99c0,0,0,0,0,0.01c-2.44,7.89-6.96,13.05-13.83,15.78c-9.76,3.87-23.87,2.64-41.94-3.68
				c-14.77-5.16-28.02-12.36-33.13-15.28c-1.03-0.59-2.3-0.68-3.37-0.15c-1.47,0.74-2.24,2.39-1.94,4
				c0.87,4.67,2.94,14.05,7.11,24.36c4.72,11.66,10.73,21.22,17.9,28.45c0.02,0.02,0.02,0.05-0.01,0.07
				c-12.81,9.2-35.46,25.64-35.7,25.82l-4.7,3.41c-0.75,0.54-0.22,1.73,0.68,1.53l41.99-8.95c0.01,0,0.01,0,0.02,0
				c2.78,0.8,15.75,4.37,32.04,6.02c10.62,1.08,20.41,1.1,29.12,0.06c11-1.31,20.3-4.32,27.64-8.94
				c16.56-10.45,23.98-25.6,27.29-36.48c2.75-9.04,3.19-16.57,3.24-19.74c0-0.02,0.01-0.03,0.03-0.04l17.52-6.04
				c0.04-0.01,0.04-0.06,0.01-0.08l-4.18-2.36c-0.03-0.02-0.03-0.07,0.01-0.08l6.15-1.85C181.95,56.01,181.95,55.95,181.91,55.94z
				 M148.73,52.7c-2.31,0.98-3.53-6.65,1.98-6.98c2.76,0,4.37,3.16,2.98,5.82C152.63,53.58,151.42,51.05,148.73,52.7z"/>
		</g>
	</g>
	<g>
		<path fill="#06B6F1" d="M253.47,99.41c0-0.76-0.62-1.38-1.38-1.38h-0.91c-3.41,0-6.35-1.23-8.82-3.7c-2.47-2.47-3.7-5.41-3.7-8.82
			c0-3.41,1.23-6.32,3.7-8.73c2.47-2.41,5.41-3.61,8.82-3.61h15.34c3.53,0,6.49,1.26,8.9,3.79c2.41,2.53,3.61,5.55,3.61,9.08v28.04
			c0,2.71-0.65,5.17-1.94,7.41c-1.29,2.23-3,4-5.11,5.29c-4.58,2.82-9.52,4.91-14.81,6.26c-5.29,1.35-10.29,2.03-14.99,2.03
			c-4.7,0-10.05-0.77-16.05-2.29c-6-1.53-11.64-4.29-16.93-8.29c-5.29-4-9.73-9.55-13.31-16.66c-3.59-7.11-5.38-16.19-5.38-27.24
			c0-9.52,1.61-17.55,4.85-24.07c3.23-6.52,7.35-11.84,12.34-15.96c5-4.11,10.55-7.08,16.66-8.91c6.11-1.82,11.99-2.73,17.63-2.73
			c4.47,0,9.14,0.62,14.02,1.85c4.88,1.24,9.55,3.2,14.02,5.91c1.41,0.94,2.58,2.35,3.53,4.23c0.94,1.88,1.41,3.76,1.41,5.64
			c0,3.41-1.21,6.26-3.61,8.55c-2.41,2.29-5.2,3.44-8.38,3.44c-1.18,0-2.32-0.2-3.44-0.62c-1.12-0.41-2.09-0.79-2.91-1.15
			c-2.59-1.17-5.11-1.94-7.58-2.29c-2.47-0.35-4.88-0.53-7.23-0.53c-2.94,0-5.94,0.41-8.99,1.24c-3.06,0.82-5.82,2.27-8.29,4.32
			c-2.47,2.06-4.5,4.82-6.08,8.29c-1.59,3.47-2.38,7.91-2.38,13.31c0,6.11,0.91,11.08,2.73,14.9c1.82,3.82,4.05,6.79,6.7,8.9
			c2.64,2.12,5.47,3.53,8.46,4.23c3,0.7,5.61,1.06,7.85,1.06c1.76,0,3.64-0.12,5.64-0.35c1.68-0.2,3.36-0.56,5.04-1.09
			c0.57-0.18,0.95-0.72,0.95-1.32V99.41z"/>
		<path fill="#06B6F1" d="M379.53,87.34c0,10.35-1.32,18.69-3.97,25.04c-2.64,6.35-6.03,11.26-10.14,14.72
			c-4.12,3.47-8.67,5.82-13.67,7.05c-5,1.24-9.9,1.85-14.72,1.85h-0.71c-4.7,0-9.58-0.62-14.64-1.85
			c-5.06-1.23-9.64-3.58-13.75-7.05c-4.12-3.47-7.49-8.38-10.14-14.72c-2.64-6.35-3.97-14.69-3.97-25.04V43.6
			c0-3.53,1.23-6.52,3.7-8.99s5.47-3.7,8.99-3.7c3.53,0,6.55,1.24,9.08,3.7c2.53,2.47,3.79,5.47,3.79,8.99l-0.29,40.29
			c0,4.7,0.47,8.61,1.41,11.73c0.94,3.12,2.2,5.59,3.79,7.41c1.59,1.82,3.44,3.09,5.56,3.79c2.11,0.7,4.29,1.06,6.52,1.06
			c2.23,0,3.12-0.35,5.24-1.06c2.12-0.71,3.97-1.97,5.55-3.79c1.59-1.82,2.85-4.29,3.79-7.41c0.94-3.11,1.41-7.02,1.41-11.73
			l1.58-40.29c0-3.53,1.24-6.52,3.7-8.99c2.47-2.47,5.47-3.7,8.99-3.7c3.53,0,6.55,1.24,9.08,3.7c2.53,2.47,3.79,5.47,3.79,8.99
			V87.34z"/>
		<path fill="#06B6F1" d="M451.13,122.27c0,3.53-1.26,6.52-3.79,8.99c-2.53,2.47-5.55,3.7-9.08,3.7c-3.53,0-6.52-1.23-8.99-3.7
			s-3.7-5.47-3.7-8.99v-18.9c0-2.28-0.62-4.53-1.8-6.48l-28-46.56c-1.18-2.12-1.76-4.29-1.76-6.52c0-3.53,1.24-6.55,3.7-9.08
			c2.47-2.53,5.52-3.79,9.17-3.79c2.47,0,4.67,0.65,6.61,1.94c1.94,1.3,3.5,2.94,4.67,4.94l9.24,15.81c4.86,8.31,16.86,8.31,21.72,0
			l9.24-15.81c1.17-2,2.73-3.64,4.67-4.94c1.94-1.29,4.14-1.94,6.61-1.94c3.64,0,6.7,1.26,9.17,3.79c2.47,2.53,3.7,5.55,3.7,9.08
			c0,2.23-0.59,4.41-1.76,6.52l-27.84,46.57c-1.17,1.95-1.78,4.18-1.78,6.45V122.27z"/>
		<path fill="#06B6F1" d="M547.47,115.81c-1.53-4.35-3.17-7.46-4.94-9.35c-1.76-1.88-3.7-2.82-5.82-2.82h-10.78
			c-2.03,0-3.68,1.65-3.68,3.68v15.72c0,3.53-1.26,6.55-3.79,9.08c-2.53,2.53-5.55,3.79-9.08,3.79s-6.52-1.26-8.99-3.79
			c-2.47-2.53-3.7-5.55-3.7-9.08V44.74c0-3.53,1.23-6.55,3.7-9.08c2.47-2.53,5.47-3.79,8.99-3.79h33.33c3.76,0,7.7,0.62,11.81,1.85
			c4.11,1.24,7.87,3.26,11.29,6.08c3.41,2.82,6.2,6.47,8.38,10.93c2.17,4.47,3.26,9.93,3.26,16.4c0,5.64-1.15,10.76-3.44,15.34
			c-1.64,3.29-3.97,5.91-6.97,7.87c-1.8,1.17-2.26,3.56-1.01,5.31c1.07,1.52,2,3.21,2.79,5.07c1.41,3.35,2.7,6.73,3.88,10.14
			l2.64,7.58c0.59,1.76,0.88,3.41,0.88,4.94c0,3.53-1.23,6.5-3.7,8.9c-1.98,1.94-6.69,3.09-8.47,3.47c-0.46,0.1-0.93,0.11-1.4,0.02
			c-1.51-0.27-5.06-0.99-6.7-2.18c-2.12-1.53-3.59-3.53-4.41-6L547.47,115.81z M542.18,78.78c1.06,0,2.14-0.09,3.26-0.26
			c1.12-0.18,2.14-0.64,3.09-1.41c0.94-0.76,1.73-1.88,2.38-3.35c0.64-1.47,0.97-3.5,0.97-6.08c0-4.47-1.06-7.41-3.17-8.82
			c-2.12-1.41-4.29-2.11-6.52-2.11h-16.25c-2.03,0-3.68,1.65-3.68,3.68V75.1c0,2.03,1.65,3.68,3.68,3.68H542.18z"/>
		<linearGradient id="SVGID_5_" gradientUnits="userSpaceOnUse" x1="649.6561" y1="135.8097" x2="631.491" y2="101.8251">
			<stop  offset="0" style="stop-color:#673DD6"/>
			<stop  offset="1" style="stop-color:#06B6F1"/>
		</linearGradient>
		<path fill="url(#SVGID_5_)" d="M636.54,31.55c3.76,0,7.17,1.12,10.23,3.35c3.05,2.23,5.23,5.05,6.52,8.46l27.69,74.94
			c0.59,1.53,0.88,3.06,0.88,4.59c0,3.53-1.29,6.52-3.88,8.99c-2.59,2.47-5.64,3.7-9.17,3.7c-2.71,0-5.09-0.67-7.14-2.03
			c-2.06-1.35-3.56-3.2-4.5-5.56l-2.47-6.75c-0.53-1.45-1.91-2.42-3.45-2.42h-29.42c-1.54,0-2.92,0.96-3.45,2.42l-2.47,6.75
			c-0.94,2.35-2.44,4.2-4.5,5.56c-2.06,1.35-4.44,2.03-7.14,2.03c-3.53,0-6.58-1.23-9.17-3.7c-2.59-2.47-3.88-5.47-3.88-8.99
			c0-1.53,0.29-3.06,0.88-4.59l27.69-74.94c1.29-3.41,3.47-6.23,6.52-8.46C629.37,32.67,632.77,31.55,636.54,31.55z M631.65,98.27
			h12.97c3.65,0,6.19-3.63,4.94-7.05l-6.49-17.8c-1.68-4.61-8.2-4.61-9.87,0l-6.49,17.8C625.47,94.65,628,98.27,631.65,98.27z"/>
		<path fill="#06B6F1" d="M644.91,0.82c2.38-0.87,4.74-1.05,7.09-0.55s4.77,2.15,7.28,4.96c2.27,2.54,3.41,5.26,3.42,8.18
			c0.01,2.58-0.98,4.91-2.97,6.98c-0.48,0.51-1.1,0.87-1.78,1.04l-17.68,4.45c-0.07,0.02-0.13,0.04-0.2,0.06
			c-2.01,0.69-4.15,0.77-6.41,0.23c-2.3-0.54-4.59-2.08-6.87-4.62c-2.04-2.28-3.03-4.79-2.96-7.53c0.06-2.44,0.99-4.6,2.8-6.48
			c0.41-0.43,0.92-0.76,1.49-0.96L644.91,0.82z"/>
	</g>
</g>
</svg>
