<?xml version="1.0" encoding="utf-8"?>
<!-- Generator: Adobe Illustrator 25.0.0, SVG Export Plug-In . SVG Version: 6.00 Build 0)  -->
<svg version="1.1" xmlns="http://www.w3.org/2000/svg" xmlns:xlink="http://www.w3.org/1999/xlink" x="0px" y="0px"
	 viewBox="0 0 636.41 176.16" enable-background="new 0 0 636.41 176.16" xml:space="preserve">
<g id="Layer_4">
</g>
<g id="Layer_3">
	<g>
		<path fill="#06B6F1" d="M81.54,128.76c0-0.99-0.8-1.79-1.79-1.79h-1.17c-4.42,0-8.22-1.6-11.42-4.8c-3.2-3.2-4.8-7-4.8-11.42
			c0-4.41,1.6-8.18,4.8-11.31c3.2-3.12,7-4.68,11.42-4.68h19.87c4.57,0,8.41,1.64,11.53,4.91c3.12,3.28,4.68,7.19,4.68,11.76v36.32
			c0,3.5-0.84,6.7-2.51,9.59c-1.68,2.89-3.88,5.18-6.62,6.85c-5.94,3.65-12.33,6.36-19.18,8.11c-6.85,1.75-13.33,2.63-19.42,2.63
			c-6.09,0-13.02-0.99-20.78-2.97c-7.77-1.98-15.07-5.56-21.93-10.74c-6.85-5.17-12.6-12.37-17.25-21.58
			C2.32,130.44,0,118.67,0,104.36c0-12.33,2.09-22.73,6.28-31.18c4.19-8.45,9.52-15.34,15.99-20.67
			c6.47-5.33,13.66-9.17,21.58-11.54c7.91-2.36,15.53-3.54,22.84-3.54c5.78,0,11.84,0.8,18.16,2.4c6.32,1.6,12.37,4.15,18.16,7.65
			c1.83,1.22,3.35,3.05,4.57,5.48c1.22,2.44,1.83,4.87,1.83,7.31c0,4.42-1.56,8.11-4.68,11.08c-3.12,2.97-6.74,4.45-10.85,4.45
			c-1.52,0-3.01-0.26-4.45-0.8c-1.45-0.53-2.7-1.03-3.77-1.48c-3.35-1.52-6.62-2.51-9.82-2.97c-3.2-0.46-6.32-0.69-9.36-0.69
			c-3.81,0-7.69,0.54-11.65,1.6c-3.96,1.07-7.54,2.93-10.73,5.6c-3.2,2.66-5.82,6.25-7.88,10.73c-2.06,4.49-3.08,10.24-3.08,17.24
			c0,7.92,1.18,14.35,3.54,19.3c2.36,4.95,5.25,8.79,8.68,11.53c3.42,2.74,7.08,4.57,10.96,5.48c3.88,0.91,7.27,1.37,10.16,1.37
			c2.28,0,4.72-0.15,7.31-0.46c2.18-0.25,4.35-0.73,6.53-1.41c0.74-0.23,1.23-0.94,1.23-1.71V128.76z"/>
		<path fill="#06B6F1" d="M244.83,113.12c0,13.4-1.71,24.21-5.14,32.43c-3.42,8.22-7.8,14.58-13.13,19.07
			c-5.33,4.49-11.23,7.54-17.7,9.13c-6.47,1.6-12.83,2.4-19.07,2.4h-0.91c-6.09,0-12.41-0.8-18.96-2.4
			c-6.55-1.6-12.49-4.64-17.82-9.13c-5.33-4.49-9.71-10.85-13.13-19.07c-3.42-8.22-5.14-19.03-5.14-32.43V56.48
			c0-4.57,1.6-8.45,4.8-11.65s7.08-4.8,11.65-4.8s8.49,1.6,11.76,4.8c3.27,3.2,4.91,7.08,4.91,11.65l-0.38,52.19
			c0,6.09,0.61,11.15,1.83,15.19c1.22,4.04,2.85,7.23,4.91,9.59c2.06,2.36,4.45,4,7.2,4.91c2.74,0.91,5.56,1.37,8.45,1.37
			c2.89,0,4.04-0.46,6.78-1.37c2.74-0.91,5.14-2.55,7.19-4.91c2.06-2.36,3.69-5.56,4.91-9.59c1.22-4.03,1.83-9.1,1.83-15.19
			l2.05-52.19c0-4.57,1.6-8.45,4.8-11.65c3.2-3.2,7.08-4.8,11.65-4.8s8.49,1.6,11.76,4.8c3.27,3.2,4.91,7.08,4.91,11.65V113.12z"/>
		<path fill="#06B6F1" d="M337.56,158.37c0,4.57-1.64,8.45-4.91,11.65c-3.28,3.2-7.19,4.8-11.76,4.8c-4.57,0-8.45-1.6-11.65-4.8
			c-3.2-3.2-4.8-7.08-4.8-11.65v-24.48c0-2.96-0.81-5.86-2.33-8.4l-36.27-60.31c-1.52-2.74-2.29-5.56-2.29-8.45
			c0-4.57,1.6-8.49,4.8-11.76c3.2-3.27,7.16-4.91,11.88-4.91c3.2,0,6.05,0.84,8.56,2.51c2.51,1.68,4.53,3.81,6.05,6.4l11.97,20.48
			c6.29,10.76,21.84,10.76,28.13,0l11.97-20.48c1.52-2.59,3.54-4.72,6.05-6.4c2.51-1.67,5.37-2.51,8.56-2.51
			c4.72,0,8.68,1.64,11.88,4.91c3.2,3.28,4.8,7.19,4.8,11.76c0,2.89-0.76,5.71-2.29,8.45l-36.06,60.32
			c-1.51,2.53-2.31,5.42-2.31,8.36V158.37z"/>
		<path fill="#06B6F1" d="M462.35,150c-1.98-5.63-4.11-9.67-6.4-12.11c-2.28-2.43-4.8-3.65-7.54-3.65h-13.97
			c-2.63,0-4.76,2.13-4.76,4.76v20.36c0,4.57-1.64,8.49-4.91,11.76c-3.28,3.28-7.19,4.91-11.76,4.91c-4.57,0-8.45-1.63-11.65-4.91
			c-3.2-3.27-4.8-7.19-4.8-11.76V57.95c0-4.57,1.6-8.49,4.8-11.76c3.2-3.27,7.08-4.91,11.65-4.91h43.17c4.87,0,9.97,0.8,15.3,2.4
			c5.33,1.6,10.2,4.23,14.62,7.88c4.41,3.65,8.03,8.38,10.85,14.16c2.82,5.79,4.23,12.87,4.23,21.24c0,7.31-1.48,13.93-4.45,19.87
			c-2.13,4.26-5.14,7.66-9.03,10.19c-2.34,1.52-2.93,4.61-1.31,6.88c1.39,1.96,2.6,4.15,3.61,6.56c1.83,4.34,3.5,8.72,5.02,13.13
			l3.42,9.82c0.76,2.28,1.14,4.42,1.14,6.4c0,4.57-1.6,8.41-4.8,11.53c-2.57,2.51-8.67,4.01-10.97,4.5
			c-0.6,0.13-1.21,0.14-1.81,0.03c-1.96-0.34-6.56-1.28-8.68-2.82c-2.74-1.98-4.65-4.57-5.71-7.77L462.35,150z M455.5,102.04
			c1.37,0,2.78-0.12,4.23-0.34c1.45-0.23,2.78-0.84,4-1.83c1.22-0.99,2.24-2.44,3.08-4.34c0.83-1.9,1.26-4.53,1.26-7.88
			c0-5.78-1.37-9.59-4.11-11.42c-2.74-1.83-5.56-2.74-8.45-2.74h-21.05c-2.63,0-4.76,2.13-4.76,4.76v19.02
			c0,2.63,2.13,4.76,4.76,4.76H455.5z"/>
		<linearGradient id="SVGID_1_" gradientUnits="userSpaceOnUse" x1="594.7061" y1="175.9087" x2="571.1776" y2="131.8898">
			<stop  offset="0" style="stop-color:#673DD6"/>
			<stop  offset="1" style="stop-color:#06B6F1"/>
		</linearGradient>
		<path fill="url(#SVGID_1_)" d="M577.71,40.86c4.87,0,9.29,1.45,13.25,4.34c3.96,2.89,6.77,6.55,8.45,10.96l35.86,97.07
			c0.76,1.98,1.14,3.96,1.14,5.94c0,4.57-1.68,8.45-5.02,11.65c-3.35,3.2-7.31,4.8-11.88,4.8c-3.51,0-6.59-0.87-9.25-2.63
			c-2.67-1.75-4.61-4.15-5.83-7.2l-3.2-8.75c-0.69-1.88-2.47-3.13-4.47-3.13h-38.1c-2,0-3.79,1.25-4.47,3.13l-3.2,8.75
			c-1.22,3.05-3.16,5.45-5.83,7.2c-2.66,1.75-5.75,2.63-9.25,2.63c-4.57,0-8.53-1.6-11.88-4.8c-3.35-3.2-5.02-7.08-5.02-11.65
			c0-1.98,0.38-3.96,1.14-5.94l35.86-97.07c1.67-4.41,4.49-8.07,8.45-10.96C568.42,42.31,572.84,40.86,577.71,40.86z M571.39,127.29
			h16.8c4.72,0,8.01-4.7,6.39-9.14l-8.4-23.06c-2.17-5.97-10.61-5.97-12.79,0l-8.4,23.06C563.37,122.59,566.66,127.29,571.39,127.29
			z"/>
		<path fill="#06B6F1" d="M588.56,1.07c3.08-1.13,6.14-1.36,9.18-0.71s6.18,2.79,9.43,6.42c2.95,3.29,4.42,6.82,4.43,10.59
			c0.01,3.34-1.27,6.35-3.85,9.04c-0.63,0.66-1.43,1.13-2.31,1.35l-22.91,5.77c-0.09,0.02-0.17,0.05-0.26,0.08
			c-2.61,0.89-5.37,1-8.3,0.3c-2.98-0.7-5.95-2.7-8.89-5.99c-2.64-2.95-3.92-6.2-3.83-9.75c0.07-3.16,1.28-5.96,3.62-8.4
			c0.54-0.56,1.2-0.99,1.93-1.24L588.56,1.07z"/>
	</g>
</g>
</svg>
