<?xml version="1.0" encoding="utf-8"?>
<!-- Generator: Adobe Illustrator 25.0.0, SVG Export Plug-In . SVG Version: 6.00 Build 0)  -->
<svg version="1.1" xmlns="http://www.w3.org/2000/svg" xmlns:xlink="http://www.w3.org/1999/xlink" x="0px" y="0px"
	 viewBox="0 0 681.86 136" enable-background="new 0 0 681.86 136" xml:space="preserve">
<g id="Layer_4">
	<g>
		<linearGradient id="SVGID_1_" gradientUnits="userSpaceOnUse" x1="65.826" y1="44.9572" x2="122.1272" y2="70.7788">
			<stop  offset="0.2873" style="stop-color:#00B6FF"/>
			<stop  offset="0.3763" style="stop-color:#00B4FC"/>
			<stop  offset="0.4521" style="stop-color:#00ACF1"/>
			<stop  offset="0.523" style="stop-color:#00A0E0"/>
			<stop  offset="0.5911" style="stop-color:#008EC7"/>
			<stop  offset="0.657" style="stop-color:#0077A7"/>
			<stop  offset="0.7213" style="stop-color:#005B7F"/>
			<stop  offset="0.7844" style="stop-color:#003A51"/>
			<stop  offset="0.845" style="stop-color:#00141C"/>
			<stop  offset="0.8744" style="stop-color:#000000"/>
		</linearGradient>
		<path fill="url(#SVGID_1_)" d="M111.68,52.41c-0.62-1.01-0.49-1.52-1.64-1.69c-29-4.22-46.62-26.25-50.98-32.85
			c-0.78-1.18-2.1-1.78-3.47-1.56c-1.39,0.22-2.49,1.23-2.88,2.62c-1.82,6.57-4.93,18.4,1.64,37.32c0.13,0.36,0.4,0.66,0.75,0.81
			c18.31,6.34,30.95,7.22,46.79,1.57c1.38-0.7,2.69,1.09,1.59,2.18c-10.99,10.88-28.19,7.6-42.12,3.72
			c-1.48-0.41-2.44,1.6-1.15,2.44c0.07,0.05,0.14,0.08,0.21,0.11c9.63,3.62,18.14,5.43,25.45,5.43c5.32,0,10.01-0.96,14.04-2.88
			c7.9-3.77,11.02-10.17,12.18-13.65C112.48,54.77,112.34,53.48,111.68,52.41z"/>
		<linearGradient id="SVGID_2_" gradientUnits="userSpaceOnUse" x1="56.7412" y1="20.0475" x2="56.7415" y2="20.0475">
			<stop  offset="0" style="stop-color:#00B6FF"/>
			<stop  offset="0.1277" style="stop-color:#009CDA"/>
			<stop  offset="0.5464" style="stop-color:#004966"/>
			<stop  offset="0.8346" style="stop-color:#00141D"/>
			<stop  offset="0.9673" style="stop-color:#000000"/>
			<stop  offset="0.972" style="stop-color:#100324"/>
			<stop  offset="0.9859" style="stop-color:#3F0B8A"/>
			<stop  offset="0.9955" style="stop-color:#5C10CA"/>
			<stop  offset="1" style="stop-color:#6712E3"/>
		</linearGradient>
		<polygon fill="url(#SVGID_2_)" points="56.74,20.05 56.74,20.05 56.74,20.05 		"/>
	</g>
</g>
<g id="Layer_3">
	<g>
		<g>
			<linearGradient id="SVGID_3_" gradientUnits="userSpaceOnUse" x1="547.3916" y1="73.7006" x2="702.5751" y2="73.7006">
				<stop  offset="0" style="stop-color:#00EBFF"/>
				<stop  offset="0.1081" style="stop-color:#0CD1FC"/>
				<stop  offset="0.5494" style="stop-color:#3D6BEF"/>
				<stop  offset="0.856" style="stop-color:#5B2BE6"/>
				<stop  offset="1" style="stop-color:#6712E3"/>
			</linearGradient>
			<path display="none" fill="url(#SVGID_3_)" d="M151.04,55.12l5.62-1.69l-10.29-5.11l0.07-1.37c0-0.05,0.24-5.93-2.35-12.04
				c-3.38-7.96-9.84-12.62-19.2-13.85c-18.04-2.37-22.52,11.88-24.54,26.13c-0.12,0.87-0.23,1.61-0.34,2.24L100,49.56l-0.04,0.13
				c-2.78,9.13-8.28,15.38-16.33,18.57C59.7,77.76,19.62,57.3,6.05,49.67C7.9,58.98,14.39,85,31.45,100.82l1.87,1.74l-2.08,1.49
				c-7.9,5.67-21.24,15.32-29.77,21.5l27.7-5.91l0.51,0.16c0.14,0.04,14.22,4.25,31.86,6.03c16.09,1.62,38.53,1.51,54.03-8.27
				c12.38-7.81,20.95-19.26,25.47-34.02c3.4-11.1,3.1-20.02,3.1-20.11l-0.06-1.55l11.75-4.05L151.04,55.12z"/>
			<linearGradient id="SVGID_4_" gradientUnits="userSpaceOnUse" x1="25.2972" y1="24.3255" x2="143.4349" y2="149.1172">
				<stop  offset="6.592621e-03" style="stop-color:#00EBFF"/>
				<stop  offset="0.1214" style="stop-color:#02DDFB"/>
				<stop  offset="0.3395" style="stop-color:#06B7F1"/>
				<stop  offset="0.343" style="stop-color:#06B6F1"/>
				<stop  offset="0.4397" style="stop-color:#09B3F0"/>
				<stop  offset="0.5195" style="stop-color:#11A9EE"/>
				<stop  offset="0.5932" style="stop-color:#1F97EA"/>
				<stop  offset="0.6633" style="stop-color:#327FE5"/>
				<stop  offset="0.7302" style="stop-color:#4B60DE"/>
				<stop  offset="0.791" style="stop-color:#673DD6"/>
			</linearGradient>
			<path fill="url(#SVGID_4_)" d="M181.91,55.94l-17.24-8.57c-0.01-0.01-0.02-0.02-0.02-0.04c-0.06-2.33-0.47-7.19-2.61-12.31
				c-2.73-6.54-8.87-14.72-22.56-16.51c-10.56-1.39-18.46,2.12-23.46,10.42c-3.96,6.57-5.09,14.52-5.76,19.27
				c-0.11,0.77-0.2,1.44-0.29,1.99c0,0,0,0,0,0.01c-2.44,7.89-6.96,13.05-13.83,15.78c-9.76,3.87-23.87,2.64-41.94-3.68
				c-14.77-5.16-28.02-12.36-33.13-15.28c-1.03-0.59-2.3-0.68-3.37-0.15c-1.47,0.74-2.24,2.39-1.94,4
				c0.87,4.67,2.94,14.05,7.11,24.36c4.72,11.66,10.73,21.22,17.9,28.45c0.02,0.02,0.02,0.05-0.01,0.07
				c-12.81,9.2-35.46,25.64-35.7,25.82l-4.7,3.41c-0.75,0.54-0.22,1.73,0.68,1.53l41.99-8.95c0.01,0,0.01,0,0.02,0
				c2.78,0.8,15.75,4.37,32.04,6.02c10.62,1.08,20.41,1.1,29.12,0.06c11-1.31,20.3-4.32,27.64-8.94
				c16.56-10.45,23.98-25.6,27.29-36.48c2.75-9.04,3.19-16.57,3.24-19.74c0-0.02,0.01-0.03,0.03-0.04l17.52-6.04
				c0.04-0.01,0.04-0.06,0.01-0.08l-4.18-2.36c-0.03-0.02-0.03-0.07,0.01-0.08l6.15-1.85C181.95,56.01,181.95,55.95,181.91,55.94z
				 M148.73,52.7c-2.31,0.98-3.53-6.65,1.98-6.98c2.76,0,4.37,3.16,2.98,5.82C152.63,53.58,151.42,51.05,148.73,52.7z"/>
		</g>
	</g>
	<g>
		<path fill="#06B6F1" d="M257.77,97.58c0-0.76-1.74-3.03-2.5-3.03h-0.9c-3.38,0-7.87,0.97-10.31-1.47
			c-2.44-2.44-3.22-5.44-3.22-10.55c0-5.11,2.54-8.02,4.18-9.41s7.33-2.97,10.7-2.97h15.18c3.49,0,6.43,1.25,8.81,3.75
			c2.38,2.5,3.58,5.5,3.58,8.99l-0.07,31.4c0,2.68-0.64,5.12-1.92,7.33c-1.28,2.21-2.97,3.96-5.06,5.23
			c-4.54,2.79-9.42,4.86-14.66,6.19c-5.23,1.34-10.18,2.01-14.83,2.01c-4.65,0-9.95-0.76-15.88-2.27
			c-5.93-1.51-11.52-4.25-16.75-8.2c-5.24-3.95-9.63-9.45-13.18-16.49c-3.55-7.04-5.32-16.02-5.32-26.96c0-9.42,1.6-17.36,4.8-23.82
			c3.2-6.46,7.27-11.72,12.22-15.79c4.94-4.07,10.44-7.01,16.49-8.81c6.05-1.8,11.87-2.7,17.45-2.7c4.42,0,9.04,0.61,13.87,1.83
			c4.83,1.22,9.45,3.17,13.87,5.85c1.4,0.93,2.56,2.33,3.49,4.19c0.93,1.86,1.4,3.72,1.4,5.58c0,3.37-1.19,6.19-3.58,8.46
			c-2.39,2.27-5.15,3.4-8.29,3.4c-1.17,0-2.3-0.2-3.4-0.61c-1.11-0.41-2.07-0.79-2.88-1.13c-2.56-1.16-5.06-1.92-7.5-2.27
			c-2.44-0.35-4.83-0.52-7.15-0.52c-2.91,0-5.88,0.41-8.9,1.22c-3.03,0.81-5.76,2.24-8.2,4.28c-2.44,2.04-4.45,4.77-6.02,8.2
			c-1.57,3.43-2.35,7.82-2.35,13.17c0,6.05,0.9,10.97,2.7,14.75c1.8,3.78,4.01,6.72,6.63,8.81c2.62,2.09,5.41,3.49,8.38,4.19
			c2.97,0.7,5.55,1.05,7.76,1.05c1.74,0,3.6-0.11,5.58-0.35c1.66-0.19,3.33-0.56,4.99-1.08c0.56-0.18,0.94-0.71,0.94-1.31
			L257.77,97.58z"/>
		<path fill="#06B6F1" d="M382.68,87.83c0,10.24-1.31,18.5-3.93,24.78c-2.62,6.28-5.96,11.14-10.03,14.57
			c-4.07,3.43-8.58,5.76-13.52,6.98c-4.95,1.22-9.8,1.83-14.57,1.83h-0.7c-4.65,0-9.48-0.61-14.48-1.83
			c-5-1.22-9.54-3.55-13.61-6.98c-4.07-3.43-7.42-8.29-10.03-14.57c-2.62-6.28-3.93-14.54-3.93-24.78V44.55
			c0-3.49,1.22-6.46,3.66-8.9c2.44-2.44,5.41-3.67,8.9-3.67s6.48,1.22,8.99,3.67c2.5,2.44,3.75,5.41,3.75,8.9l0.04,37.67
			c0,4.65,0.46,8.52,1.4,11.6c0.93,3.08,2.18,5.53,3.75,7.33c1.57,1.8,3.4,3.05,5.5,3.75c2.09,0.7,4.2,0.91,6.41,0.91
			c2.21,0,3.09-0.35,5.18-1.05c2.09-0.7,3.93-1.95,5.5-3.75c1.57-1.8,2.82-4.24,3.75-7.33c0.93-3.08,1.4-6.95,1.4-11.6l1.28-37.53
			c0-3.49,1.22-6.46,3.66-8.9c2.44-2.44,5.41-3.67,8.9-3.67c3.49,0,6.48,1.22,8.99,3.67c2.5,2.44,3.75,5.41,3.75,8.9V87.83z"/>
		<path fill="#06B6F1" d="M453.53,122.39c0,3.49-1.25,6.46-3.75,8.9c-2.5,2.44-5.5,3.66-8.99,3.66s-6.46-1.22-8.9-3.66
			c-2.44-2.44-3.66-5.41-3.66-8.9v-18.71c0-2.26-0.62-4.48-1.78-6.42L398.73,51.2c-1.16-2.09-1.75-4.25-1.75-6.46
			c0-3.49,1.22-6.48,3.67-8.99c2.44-2.5,5.47-3.75,9.07-3.75c2.44,0,4.62,0.64,6.54,1.92c1.92,1.28,3.46,2.91,4.62,4.89l9.15,15.65
			c4.81,8.22,16.69,8.22,21.49,0l9.15-15.65c1.16-1.98,2.7-3.6,4.62-4.89c1.92-1.28,4.1-1.92,6.54-1.92c3.6,0,6.63,1.25,9.07,3.75
			c2.44,2.5,3.67,5.5,3.67,8.99c0,2.21-0.58,4.36-1.75,6.46l-27.55,46.08c-1.15,1.93-1.76,4.14-1.76,6.39V122.39z"/>
		<path fill="#06B6F1" d="M548.87,116c-1.51-4.3-3.14-7.39-4.89-9.25c-1.74-1.86-3.66-2.79-5.76-2.79h-10.67
			c-2.01,0-3.64,1.63-3.64,3.64v15.56c0,3.49-1.25,6.49-3.75,8.99c-2.5,2.5-5.5,3.75-8.99,3.75s-6.46-1.25-8.9-3.75
			c-2.44-2.5-3.66-5.5-3.66-8.99V45.68c0-3.49,1.22-6.48,3.66-8.99c2.44-2.5,5.41-3.75,8.9-3.75h32.98c3.72,0,7.62,0.61,11.69,1.83
			c4.07,1.22,7.79,3.23,11.17,6.02c3.37,2.79,6.13,6.4,8.29,10.82c2.15,4.42,3.23,9.83,3.23,16.23c0,5.58-1.13,10.64-3.4,15.18
			c-1.63,3.25-3.93,5.85-6.9,7.79c-1.78,1.16-2.23,3.52-1,5.26c1.06,1.5,1.98,3.17,2.76,5.01c1.4,3.32,2.67,6.66,3.84,10.03
			l2.62,7.5c0.58,1.74,0.87,3.38,0.87,4.89c0,3.49-1.22,6.43-3.66,8.81c-1.96,1.92-6.62,3.06-8.38,3.44
			c-0.46,0.1-0.92,0.11-1.38,0.02c-1.49-0.26-5.01-0.98-6.63-2.15c-2.09-1.51-3.55-3.49-4.36-5.93L548.87,116z M543.63,79.36
			c1.05,0,2.12-0.09,3.23-0.26c1.1-0.18,2.12-0.64,3.05-1.4c0.93-0.76,1.71-1.86,2.36-3.32c0.64-1.45,0.96-3.46,0.96-6.02
			c0-4.42-1.05-7.33-3.14-8.72c-2.09-1.4-4.25-2.09-6.46-2.09h-16.08c-2.01,0-3.64,1.63-3.64,3.64v14.54c0,2.01,1.63,3.64,3.64,3.64
			H543.63z"/>
		<linearGradient id="SVGID_5_" gradientUnits="userSpaceOnUse" x1="649.9911" y1="135.7952" x2="632.015" y2="102.1642">
			<stop  offset="0" style="stop-color:#673DD6"/>
			<stop  offset="1" style="stop-color:#06B6F1"/>
		</linearGradient>
		<path fill="url(#SVGID_5_)" d="M637.01,32.62c3.72,0,7.1,1.11,10.12,3.32c3.02,2.21,5.17,5,6.46,8.37l27.4,74.16
			c0.58,1.51,0.87,3.03,0.87,4.54c0,3.49-1.28,6.46-3.84,8.9c-2.56,2.44-5.58,3.66-9.07,3.66c-2.68,0-5.03-0.67-7.07-2.01
			c-2.04-1.34-3.52-3.17-4.45-5.5l-2.44-6.68c-0.52-1.44-1.89-2.39-3.42-2.39h-29.11c-1.53,0-2.89,0.95-3.42,2.39l-2.44,6.68
			c-0.93,2.33-2.42,4.16-4.45,5.5c-2.04,1.34-4.39,2.01-7.07,2.01c-3.49,0-6.52-1.22-9.07-3.66c-2.56-2.44-3.84-5.41-3.84-8.9
			c0-1.51,0.29-3.02,0.87-4.54l27.4-74.16c1.28-3.37,3.43-6.16,6.46-8.37C629.91,33.73,633.28,32.62,637.01,32.62z M631.56,98.65
			h13.27c3.73,0,6.33-3.71,5.05-7.22l-6.64-18.21c-1.72-4.71-8.38-4.71-10.1,0l-6.64,18.21C625.23,94.94,627.83,98.65,631.56,98.65z
			"/>
		<path fill="#06B6F1" d="M645.29,2.21c2.35-0.86,4.69-1.04,7.01-0.54c2.32,0.5,4.72,2.13,7.21,4.9c2.25,2.51,3.38,5.21,3.39,8.09
			c0.01,2.55-0.97,4.85-2.94,6.91c-0.48,0.5-1.09,0.86-1.77,1.03l-17.5,4.41c-0.07,0.02-0.13,0.04-0.2,0.06
			c-1.99,0.68-4.1,0.76-6.34,0.23c-2.28-0.54-4.54-2.06-6.79-4.57c-2.02-2.25-2.99-4.74-2.93-7.45c0.06-2.41,0.98-4.55,2.77-6.42
			c0.41-0.43,0.91-0.75,1.47-0.95L645.29,2.21z"/>
	</g>
</g>
</svg>
