<svg xmlns="http://www.w3.org/2000/svg" width="3840" height="2160" viewBox="0 0 3840 2160">
  <defs>
    <style>
      .cls-1 {
        fill: #fff;
        fill-rule: evenodd;
      }
    </style>
  </defs>
  <path id="Ellipse_1_copy_4" data-name="Ellipse 1 copy 4" class="cls-1" d="M285,1541c210.42,0,381,170.58,381,381s-170.58,381-381,381S-96,2132.42-96,1922,74.58,1541,285,1541Zm640.242-141c301.078,0,545.148,244.07,545.148,545.15S1226.32,2490.3,925.242,2490.3s-545.148-244.08-545.148-545.15S624.165,1400,925.242,1400Zm841.448-319.92c388.54,0,703.51,314.97,703.51,703.5s-314.97,703.5-703.51,703.5-703.5-314.97-703.5-703.5S1378.16,1080.08,1766.69,1080.08ZM2935.19,808.2c589.88,0,1068.08,478.2,1068.08,1068.077s-478.2,1068.08-1068.08,1068.08S1867.11,2466.17,1867.11,1876.28,2345.3,808.2,2935.19,808.2Z"/>
  <path class="cls-1" d="M2,1667s71.681-137,252-137,243,74,243,74,83.977-174.21,316-194,333,34,333,34,135.77-309.33,485-364,496,89,496,89,272.2-339.837,723-360,833.6,209.3,996,509,150,1252,150,1252l-4315-35Z"/>
</svg>
