<svg x="0" y="0" width="700" height="350" viewBox="0 0 700 350" xmlns="http://www.w3.org/2000/svg" xmlns:xlink="http://www.w3.org/1999/xlink" xmlns:fi="http://pattern.flaticon.com/"><defs><g transform="matrix(0.18595610558986664 -0.09946489334106445 0.09946489334106445 0.18595610558986664 -66.51238250732422 55.607948303222656)" id="L1_8"><circle cx="235" cy="174" r="165" fill="#2ba5f7"/><path d="M202.857,291.976c-64.611-64.61-64.611-169.364,0-233.974c21.529-21.53,47.518-35.875,74.993-43.055  c-54.975-14.37-115.901-0.024-158.982,43.055c-64.61,64.61-64.61,169.364,0,233.974c43.081,43.081,104.006,57.426,158.982,43.055  C250.377,327.852,224.388,313.507,202.857,291.976z" fill="#2197d8"/><path d="M337.254,502.455H134.459l0,0c0-20.681,16.766-37.448,37.448-37.448h127.898  C320.487,465.007,337.254,481.773,337.254,502.455L337.254,502.455z" fill="#f7b239"/><path d="M144.724,266.128c19.293,19.28,32.808,42.111,40.584,66.418  c-24.307-7.763-47.163-21.291-66.444-40.571c-19.28-19.28-32.808-42.137-40.571-66.444  C102.6,233.307,125.444,246.835,144.724,266.128z" fill="#cccccc"/><path d="M393.738,125.465c-24.676-7.712-47.901-21.355-67.449-40.902  c-19.56-19.56-33.19-42.786-40.915-67.462c24.689,7.712,47.927,21.342,67.474,40.902  C372.396,77.564,386.039,100.789,393.738,125.465z" fill="#e6e6e6"/><g><path d="M323.438,197.585c21.609-32.388,77.095-6.643,77.095-6.643   c-3.538,36.868-19.446,72.794-47.685,101.033c-34.73,34.73-81.053,50.79-126.511,48.181v-0.013   c7.292-66.202,43.116-59.762,64.713-66.965C312.646,265.975,301.842,229.986,323.438,197.585z" fill="#9ad14b"/><path d="M247.857,42.808c9.443,26.241-7.089,35.697-30.937,43.104   c-23.823,7.394-37.237,32.159-30.887,56.288c2.087,7.941,2.278,16.43-1.171,24.791c-0.267,0.636-0.535,1.26-0.814,1.871   c-17.079,37.351-73.927,21.94-70.427-18.975c1.031-12.026,4.098-25.402,11.186-37.861c7.343-12.93,11.021-27.68,9.583-42.48   c-0.776-8.03-0.585-17.371,1.96-26.751c25.325-19.128,54.901-29.996,85.049-32.617C232.879,17.076,242.512,27.982,247.857,42.808z" fill="#9ad14b"/></g><path d="M221.412,10.191c-30.148,2.609-59.724,13.477-85.062,32.605v0.013  c-2.545,9.379-2.736,18.708-1.96,26.738c1.438,14.801-2.24,29.55-9.583,42.48c-7.089,12.459-10.156,25.834-11.186,37.861  c-2.253,26.292,20.438,42.06,41.462,40.037c-4.263-47.176,11.67-95.816,47.774-131.92c11.644-11.644,24.587-21.176,38.357-28.621  L221.412,10.191z" fill="#90bc42"/><path d="M388.15,327.283c83.974-83.974,83.974-220.612,0-304.586c-1.791-1.789-4.217-2.796-6.75-2.796  c-2.533,0-4.958,1.005-6.75,2.796l-21.992,21.993C320.513,15.805,279.4,0,235.856,0c-46.742,0-90.686,18.202-123.736,51.254  c-33.051,33.051-51.252,76.995-51.252,123.736c0,43.545,15.805,84.657,44.689,116.801l-21.993,21.993  c-3.728,3.728-3.728,9.771,0,13.497c38.42,38.42,88.804,60.527,142.749,62.865v65.315h-54.405  c-22.643,0-41.593,16.097-46.017,37.448h-17.297c-5.272,0-9.545,4.273-9.545,9.545c0,5.271,4.272,9.545,9.545,9.545h254.524  c5.272,0,9.545-4.273,9.545-9.545c0-5.271-4.272-9.545-9.545-9.545h-17.297c-4.422-21.351-23.374-37.448-46.017-37.448H245.4  v-65.315C299.346,387.81,349.728,365.703,388.15,327.283z M326.027,492.911H145.685c3.906-10.7,14.186-18.359,26.221-18.359h127.898  C311.841,474.552,322.121,482.21,326.027,492.911z M377.059,108.725c-16.262-7.652-31.235-18.125-44.023-30.912  c-12.787-12.786-23.26-27.762-30.913-44.025c16.129,7.582,30.992,17.986,43.969,30.963  C359.072,77.729,369.477,92.595,377.059,108.725z M176.8,144.635c1.824,6.924,1.573,13.048-0.76,18.713  c-0.219,0.531-0.445,1.051-0.672,1.549c-6.921,15.134-21.329,17.362-31.562,14.671c-10.443-2.745-22.125-11.952-20.679-28.863  c1.097-12.824,4.452-24.251,9.972-33.961c8.639-15.198,12.372-31.837,10.796-48.123c-0.697-7.193-0.378-13.978,0.933-20.227  c21.838-15.773,47.255-25.525,74.185-28.4c9.093,6.21,15.932,15.153,19.858,26.048c2.521,7.003,2.814,12.281,0.895,16.133  c-3.473,6.973-15.544,11.475-25.673,14.62C185.503,85.672,169.121,115.47,176.8,144.635z M124.569,65.828  c0.075,1.534,0.177,3.076,0.328,4.634c1.194,12.347-1.708,25.09-8.393,36.849c-6.891,12.124-11.062,26.177-12.395,41.767  c-2.298,26.883,15.844,43.956,34.844,48.951c3.99,1.049,8.21,1.61,12.491,1.61c15.867,0,32.554-7.704,41.29-26.814  c0.326-0.713,0.641-1.442,0.953-2.198c3.925-9.529,4.454-19.909,1.573-30.851c-5.07-19.255,5.69-38.91,24.494-44.748  c15.345-4.763,30.461-11.011,37.099-24.34c4.305-8.645,4.299-19.111-0.023-31.113c-2.676-7.426-6.381-14.185-10.978-20.157  c10.929,0.687,21.645,2.491,32.006,5.372c8.607,24.881,22.944,47.795,41.677,66.526c18.733,18.733,41.644,33.069,66.522,41.676  c3.754,13.505,5.695,27.604,5.695,42.003c0,0.816-0.018,1.629-0.029,2.442c-5.624-1.801-12.671-3.669-20.278-4.765  c-32.32-4.654-48.264,8.103-55.946,19.626c-11.141,16.71-14.435,33.99-17.082,47.876c-2.963,15.548-4.733,22.067-10.391,23.953  c-3.193,1.064-7.076,1.844-11.186,2.669c-20.079,4.028-49.883,10.017-58.72,63.097c-8.623-0.97-17.089-2.646-25.329-5  c-8.679-24.737-22.561-46.757-41.317-65.513c-18.482-18.481-41.048-32.697-65.52-41.322c-3.95-13.827-6.002-28.285-6.002-43.062  C79.956,133.849,95.793,95.148,124.569,65.828z M390.204,197.082c-4.69,33.261-19.938,63.973-44.11,88.146  c-29.102,29.102-67.686,45.271-108.785,45.644c6.772-38.007,24.546-41.605,43.291-45.364c4.499-0.902,9.151-1.836,13.468-3.274  c16.838-5.614,20.025-22.326,23.106-38.488c2.446-12.829,5.218-27.369,14.213-40.863  C344.495,183.221,376.551,192.128,390.204,197.082z M125.619,285.228c-12.638-12.638-22.832-27.069-30.36-42.712  c15.758,7.545,30.07,17.705,42.719,30.356c12.647,12.647,22.804,26.957,30.347,42.713  C152.683,308.056,138.255,297.865,125.619,285.228z M119.055,305.289c32.144,28.885,73.256,44.689,116.801,44.689  c46.741,0,90.684-18.202,123.736-51.254s51.252-76.994,51.252-123.736c0-43.545-15.805-84.659-44.689-116.801l15.082-15.083  c69.882,76.941,67.684,196.408-6.588,270.679c-37.073,37.074-86.364,57.491-138.795,57.491c-49.235,0-95.704-18.005-131.886-50.902  L119.055,305.289z" fill="#333333"/><g><path d="M275.44,312.237c-4.077,0-7.852-2.633-9.117-6.732c-1.555-5.037,1.268-10.381,6.305-11.935   c19.051-5.879,36.676-16.544,50.975-30.839c20.324-20.322,33.025-47.23,35.763-75.763c1.615-16.683-0.103-33.222-5.106-49.165   c-5.984-19.178-16.301-36.184-30.668-50.56c-7.143-7.148-15.035-13.361-23.456-18.466c-4.508-2.734-5.946-8.603-3.212-13.111   c2.732-4.509,8.603-5.944,13.111-3.213c9.73,5.899,18.834,13.063,27.06,21.295c16.571,16.581,28.476,36.214,35.384,58.355   c5.768,18.382,7.75,37.462,5.888,56.697c-3.159,32.929-17.815,63.981-41.267,87.432c-16.486,16.486-36.832,28.789-58.841,35.581   C277.321,312.099,276.373,312.237,275.44,312.237z" fill="#ffffff"/><circle cx="278" cy="46" r="9" fill="#ffffff"/></g></g><g transform="matrix(0.16056014597415924 0.06664760410785675 -0.06664760410785675 0.16056014597415924 274.9250183105469 258.85638427734375)" id="L1_9"><path d="M256.003,119.022v33.276h-33.276c-60.706,0-109.903-49.209-109.903-109.903V9.119h33.264  C206.794,9.119,256.003,58.328,256.003,119.022z" fill="#9ad14b"/><path d="M256.003,152.298h-33.276c-60.706,0-109.903-49.209-109.903-109.903V9.119L256.003,152.298z" fill="#90bc42"/><path d="M291.126,152.298c102.478,0,173.879,101.712,139.059,198.088l-31.647,87.577  c-2.613,7.243-6.004,14.061-10.051,20.357c-5.53,8.605-12.299,16.249-20.004,22.727h-0.012c-6.964,5.87-14.706,10.768-23.006,14.584  c-19.373,8.884-41.528,9.443-61.606,2.333c-4.74-1.677-9.601-2.905-14.511-3.707c-4.412-0.717-8.884-1.069-13.344-1.069  c-9.419,0-18.838,1.592-27.856,4.776c-6.684,2.358-13.575,3.877-20.539,4.521c-13.964,1.3-28.135-0.924-41.066-6.855  c-24.197-11.096-43.631-31.538-53.074-57.668L81.82,350.386c-34.82-96.377,36.582-198.088,139.047-198.088h1.859h33.276H291.126z" fill="#f95428"/><path d="M173.809,350.386l14.937,87.577c4.46,26.13,13.624,46.572,25.048,57.668  c2.054,1.993,4.169,3.573,6.332,4.728c-4.132,1.033-8.313,1.738-12.518,2.127c-13.964,1.3-28.135-0.924-41.066-6.855  c-24.197-11.096-43.631-31.538-53.074-57.668L81.82,350.386c-34.82-96.377,36.582-198.088,139.047-198.088h18.558  C191.079,152.298,157.378,254.01,173.809,350.386z" fill="#e54728"/><g><path d="M383.814,398.415c-1.029,0-2.075-0.175-3.098-0.544c-4.735-1.711-7.185-6.936-5.475-11.671   l17.793-49.237c12.162-33.664,7.342-69.773-13.223-99.069c-10.248-14.596-23.242-26.053-38.625-34.049   c-4.468-2.321-6.206-7.824-3.883-12.292c2.323-4.468,7.826-6.204,12.291-3.883c18.005,9.359,33.193,22.733,45.139,39.75   c24.025,34.224,29.654,76.408,15.447,115.737l-17.793,49.238C391.047,396.108,387.545,398.415,383.814,398.415z" fill="#ffffff"/><circle cx="316" cy="185" r="9" fill="#ffffff"/></g><g><path d="M419.601,209.964c-29.793-42.441-76.621-66.783-128.479-66.783h-25.286   c4.387-27.704,28.43-48.955,57.348-48.955c5.035,0,9.115-4.081,9.115-9.115c0-5.034-4.08-9.115-9.115-9.115   c-23.759,0-45.01,10.919-59.015,27.998C256.759,45.433,206.632,0,146.093,0h-33.275c-5.035,0-9.115,4.081-9.115,9.115v33.276   c0,47.869,28.41,89.222,69.25,108.101c-32.202,10.166-60.311,30.634-80.554,59.469c-29.793,42.441-36.775,94.752-19.156,143.521   l0,0l31.649,87.579c10.148,28.08,30.691,50.403,57.845,62.855c14.113,6.473,29.92,9.116,45.708,7.646   c7.694-0.712,15.342-2.395,22.733-5.002c7.998-2.824,16.349-4.256,24.821-4.256c4,0,7.997,0.32,11.875,0.95   c4.44,0.726,8.793,1.836,12.937,3.302c10.265,3.635,20.829,5.445,31.291,5.444c12.79,0,25.43-2.705,37.165-8.088   c8.956-4.118,17.292-9.381,24.782-15.652c0.1-0.077,0.198-0.156,0.294-0.237c8.494-7.141,15.831-15.477,21.806-24.775   c4.464-6.942,8.15-14.409,10.957-22.188l31.647-87.579C456.374,304.714,449.393,252.404,419.601,209.964z M121.934,42.391V18.23   h24.16c55.576,0,100.792,45.214,100.792,100.791v24.161h-24.161C167.148,143.182,121.934,97.967,121.934,42.391z M421.61,347.287   l-31.649,87.582c-2.344,6.497-5.422,12.728-9.145,18.522c-4.923,7.66-10.957,14.54-17.936,20.453   c-0.097,0.075-0.193,0.152-0.287,0.232c-6.311,5.321-13.355,9.786-20.931,13.268c-16.994,7.794-36.444,8.515-54.767,2.026   c-5.165-1.827-10.576-3.21-16.089-4.11c-4.849-0.788-9.831-1.187-14.808-1.187c-10.544,0-20.938,1.782-30.888,5.295   c-5.973,2.107-12.146,3.467-18.352,4.041c-12.616,1.175-25.21-0.922-36.424-6.065c-22.673-10.397-39.828-29.036-48.299-52.48   l-31.649-87.579v0.001c-15.572-43.104-9.401-89.341,16.932-126.852c26.33-37.51,67.716-59.023,113.543-59.023h70.259   c45.834,0,87.225,21.514,113.558,59.027C431.012,257.949,437.182,304.184,421.61,347.287z" fill="#333333"/><path d="M227.667,133.08c2.332,0,4.666-0.89,6.446-2.67c3.56-3.56,3.56-9.331,0-12.89l-10.138-10.138V73.42   c0-5.034-4.08-9.115-9.115-9.115c-5.035,0-9.115,4.081-9.115,9.115v15.731l-14.698-14.698v-33.96c0-5.034-4.08-9.115-9.115-9.115   c-5.035,0-9.115,4.081-9.115,9.115v15.73l-25.221-25.221c-3.561-3.56-9.331-3.56-12.891,0s-3.56,9.331,0,12.89l25.221,25.221   h-15.73c-5.035,0-9.115,4.081-9.115,9.115c0,5.034,4.08,9.115,9.115,9.115h33.96l14.697,14.697h-15.73   c-5.035,0-9.115,4.081-9.115,9.115s4.08,9.115,9.115,9.115h33.961l10.138,10.138C223.001,132.189,225.335,133.08,227.667,133.08z" fill="#333333"/></g></g><g transform="matrix(-0.02174898236989975 -0.11185192316770554 0.11185192316770554 -0.02174898236989975 47.9337043762207 60.20176315307617)" id="L1_10"><path d="M131.383,258.768c50.463,0,91.385,40.922,91.385,91.385c0,50.476-40.922,91.398-91.385,91.398  c-50.476,0-91.398-40.922-91.398-91.398C39.986,299.69,80.907,258.768,131.383,258.768z" fill="#2ba5f7"/><path d="M74.287,350.153c0-44.599,31.971-81.723,74.245-89.754c-5.557-1.056-11.284-1.631-17.149-1.631  c-50.476,0-91.398,40.922-91.398,91.385c0,50.476,40.922,91.398,91.398,91.398c5.865,0,11.592-0.574,17.149-1.631  C106.258,431.889,74.287,394.763,74.287,350.153z" fill="#2197d8"/><path d="M380.624,258.768c50.463,0,91.385,40.922,91.385,91.385c0,50.476-40.922,91.398-91.385,91.398  c-50.476,0-91.398-40.922-91.398-91.398C289.227,299.69,330.149,258.768,380.624,258.768z" fill="#2ba5f7"/><path d="M165.462,408.598c-3.006,0-5.965-1.419-7.818-4.071c-3.015-4.313-1.962-10.254,2.352-13.269  c13.452-9.401,21.482-24.768,21.482-41.105c0-11.037-3.534-21.51-10.222-30.289c-3.189-4.185-2.381-10.164,1.805-13.354  c4.185-3.189,10.165-2.382,13.354,1.805c9.238,12.125,14.121,26.592,14.121,41.838c0,22.555-11.073,43.761-29.621,56.725  C169.251,408.04,167.348,408.598,165.462,408.598z" fill="#ffffff"/><path d="M323.528,350.153c0-44.599,31.971-81.723,74.245-89.754c-5.557-1.056-11.284-1.631-17.149-1.631  c-50.476,0-91.398,40.922-91.398,91.385c0,50.476,40.922,91.398,91.398,91.398c5.864,0,11.592-0.574,17.149-1.631  C355.499,431.889,323.528,394.763,323.528,350.153z" fill="#2197d8"/><path d="M414.703,408.598c-3.006,0-5.965-1.419-7.817-4.071c-3.015-4.313-1.963-10.254,2.35-13.269  c13.452-9.403,21.482-24.769,21.482-41.105c0-11.037-3.534-21.51-10.222-30.289c-3.189-4.186-2.381-10.165,1.805-13.354  c4.185-3.189,10.165-2.382,13.354,1.805c9.238,12.127,14.12,26.594,14.12,41.838c0,22.555-11.073,43.76-29.621,56.724  C418.493,408.04,416.589,408.598,414.703,408.598z" fill="#ffffff"/><path d="M462.316,60.925c-27.395,0-49.684,22.288-49.684,49.684v18.001c0,5.262,4.266,9.529,9.529,9.529  c5.262,0,9.529-4.266,9.529-9.529V110.61c0-16.887,13.739-30.627,30.627-30.627s30.627,13.739,30.627,30.627v209.085  c0,8.378-4.957,15.6-12.082,18.944c-5.737-50.238-48.491-89.398-100.24-89.398c-52.431,0-95.635,40.196-100.454,91.389h-48.334  c-4.819-51.192-48.023-91.389-100.454-91.389c-51.749,0-94.503,39.16-100.24,89.398c-7.125-3.344-12.082-10.566-12.082-18.944  V110.61c0-16.887,13.739-30.627,30.626-30.627S80.31,93.721,80.31,110.61v18.001c0,5.262,4.266,9.529,9.529,9.529  s9.529-4.266,9.529-9.529V110.61c0-27.395-22.288-49.684-49.684-49.684S0,83.213,0,110.61v209.085  c0,18.903,13.187,34.774,30.843,38.923c4.316,51.698,47.742,92.456,100.535,92.456c52.431,0,95.635-40.196,100.454-91.389h48.334  c4.819,51.192,48.023,91.389,100.454,91.389c52.794,0,96.22-40.758,100.535-92.456c17.658-4.149,30.846-20.02,30.846-38.923V110.61  C512,83.213,489.712,60.925,462.316,60.925z M131.379,432.017c-45.137,0-81.86-36.722-81.86-81.86s36.722-81.86,81.86-81.86  s81.86,36.722,81.86,81.86S176.517,432.017,131.379,432.017z M380.621,432.017c-45.137,0-81.86-36.722-81.86-81.86  s36.722-81.86,81.86-81.86s81.86,36.722,81.86,81.86S425.758,432.017,380.621,432.017z" fill="#333333"/><g><circle cx="397" cy="292" r="9" fill="#ffffff"/><circle cx="148" cy="292" r="9" fill="#ffffff"/></g></g><g transform="matrix(0.15542101860046387 -0.03509506955742836 0.03509506955742836 0.15542101860046387 205.2198486328125 67.18779754638672)" id="L1_11"><path d="M186.268,406.163 186.268,466.42 143.084,443.174 99.9,466.42 99.9,406.163 99.9,373.801   99.9,332.98 186.268,332.98 186.268,373.878z" fill="#f95428"/><g><path d="M455.241,332.98c1.627,13.973,5.295,27.752,10.99,40.899H186.268V332.98H99.9v40.821   c-9.556-0.478-18.699-3.306-26.68-8.071c-8.807-5.23-16.22-12.798-21.269-22.135c-4.662-8.601-6.986-18.092-6.986-27.571   c0-9.492,2.325-18.984,6.986-27.571c0.142-0.258,0.284-0.517,0.439-0.775c10.215-18.222,29.495-29.521,50.429-29.521H466.23   c-4.145,9.556-7.206,19.461-9.195,29.521c-0.749,3.771-1.356,7.58-1.795,11.39c-0.672,5.63-1.007,11.3-1.007,16.956   C454.233,321.693,454.569,327.349,455.241,332.98z" fill="#f7b239"/><path d="M56.754,152.688c0.672-5.63,1.007-11.287,1.007-16.956c0-5.656-0.336-11.326-1.007-16.956   c-1.614-13.973-5.282-27.765-10.99-40.911h174.597h188.828c21.218,0,40.744,11.623,50.868,30.283   c4.662,8.601,6.986,18.092,6.986,27.584c0,9.479-2.324,18.971-6.986,27.571c-5.062,9.337-12.475,16.904-21.269,22.135   c-8.807,5.243-18.984,8.149-29.599,8.149H220.361H45.764C51.472,180.44,55.14,166.661,56.754,152.688z" fill="#f7b239"/></g><path d="M460.057,108.147c-10.125-18.661-29.65-30.283-50.868-30.283h-48.425  c21.218,0,40.744,11.623,50.868,30.283c4.662,8.601,6.986,18.092,6.986,27.584c0,9.479-2.324,18.971-6.986,27.571  c-5.062,9.337-12.475,16.904-21.269,22.135c-8.807,5.243-18.984,8.149-29.599,8.149h48.425c10.615,0,20.792-2.906,29.599-8.149  c8.794-5.23,16.207-12.798,21.269-22.135c4.662-8.601,6.986-18.092,6.986-27.571C467.044,126.24,464.719,116.748,460.057,108.147z" fill="#e09b2d"/><g><path d="M497.585,378.605c2.919,2.919,4.727,6.961,4.727,11.416c0,8.924-7.232,16.142-16.142,16.142H186.268   v-32.285h105.365H466.23h19.939C490.625,373.878,494.654,375.686,497.585,378.605z" fill="#2ba5f7"/><path d="M497.585,230.598c2.919,2.931,4.727,6.961,4.727,11.416c0,8.911-7.232,16.142-16.142,16.142H466.23   H291.634H102.818c-21.231,0-40.756,11.623-50.868,30.296c-4.662,8.588-6.986,18.08-6.986,27.571c0,9.479,2.325,18.971,6.986,27.571   c5.049,9.337,12.462,16.904,21.269,22.135c7.981,4.765,17.124,7.593,26.68,8.071v32.362h-0.065   c-24.885,0-47.433-10.086-63.743-26.396c-16.31-16.323-26.409-38.845-26.409-63.743c0-49.796,40.369-90.152,90.152-90.152h312.337   h73.997C490.625,225.871,494.654,227.679,497.585,230.598z" fill="#2ba5f7"/></g><path d="M412.172,45.579c49.783,0,90.139,40.356,90.139,90.152c0,24.898-10.086,47.42-26.396,63.743  c-16.31,16.31-38.858,26.396-63.743,26.396H99.835h-74.01c-8.911,0-16.142-7.219-16.142-16.142c0-4.455,1.808-8.497,4.727-11.416  s6.961-4.727,11.416-4.727h19.939h174.597h188.828c10.615,0,20.791-2.906,29.599-8.149c8.794-5.23,16.207-12.798,21.269-22.135  c4.662-8.601,6.986-18.092,6.986-27.571c0-9.492-2.324-18.984-6.986-27.584c-10.125-18.661-29.65-30.283-50.868-30.283H220.361  H45.765H25.825c-8.911,0-16.142-7.232-16.142-16.142c0-4.455,1.808-8.484,4.727-11.416c2.919-2.919,6.961-4.727,11.416-4.727  C25.825,45.579,412.172,45.579,412.172,45.579z" fill="#f95428"/><g><path d="M466.23,258.156c-4.145,9.556-7.206,19.461-9.195,29.521H52.389   c10.215-18.222,29.496-29.521,50.429-29.521H466.23z" fill="#e09b2d"/><path d="M45.777,77.864c4.145,9.556,7.206,19.461,9.195,29.521h404.646   c-10.215-18.222-29.495-29.521-50.429-29.521H45.777z" fill="#e09b2d"/><path d="M99.9,332.98v40.821c-9.556-0.478-18.699-3.306-26.68-8.071c-8.807-5.23-16.22-12.798-21.269-22.135   c-1.86-3.409-3.332-6.974-4.442-10.615L99.9,332.98L99.9,332.98z" fill="#e09b2d"/></g><g><path d="M157.368,425.207c-5.349,0-9.685-4.337-9.685-9.685v-24.537c0-5.349,4.337-9.685,9.685-9.685   s9.685,4.337,9.685,9.685v24.537C167.054,420.871,162.717,425.207,157.368,425.207z" fill="#ffffff"/><circle cx="157" cy="362" r="9" fill="#ffffff"/></g><g><path d="M472.77,267.844h13.402c14.241,0,25.828-11.586,25.828-25.828c0-6.879-2.681-13.361-7.578-18.281   c-4.889-4.867-11.371-7.547-18.25-7.547h-14.996C495.909,198,512,168.713,512,135.726c0-55.048-44.786-99.834-99.834-99.834H25.832   c-14.242,0-25.828,11.586-25.828,25.828S11.59,87.548,25.832,87.548H39.24c11.716,30.943,11.716,65.412,0,96.355H25.832   c-14.242,0-25.828,11.586-25.828,25.828s11.586,25.828,25.828,25.828h14.996C16.092,253.75,0,283.039,0,316.026   c0,26.647,10.385,51.717,29.245,70.592c16.565,16.565,37.932,26.583,60.966,28.771v51.033c0,3.409,1.792,6.567,4.717,8.314   c2.928,1.749,6.556,1.83,9.558,0.214l38.596-20.773l38.596,20.773c1.435,0.772,3.013,1.157,4.591,1.157   c1.721,0,3.44-0.458,4.968-1.371c2.926-1.749,4.717-4.906,4.717-8.314v-50.571h290.216c14.241,0,25.828-11.586,25.828-25.828   c0-6.901-2.686-13.388-7.578-18.28c-4.889-4.867-11.371-7.548-18.25-7.548h-13.402c-3.952-10.419-6.618-21.267-7.91-32.36   c-0.624-5.226-0.94-10.546-0.94-15.809s0.316-10.582,0.943-15.836C466.154,289.111,468.82,278.26,472.77,267.844z M65.084,162.371   h99.376c5.349,0,9.685-4.337,9.685-9.685S169.808,143,164.459,143H67.211c0.226-4.845,0.226-9.697,0-14.541h47.955   c5.349,0,9.685-4.337,9.685-9.685s-4.337-9.685-9.685-9.685H65.084c-1.259-7.273-3.009-14.475-5.308-21.538h349.408   c17.693,0,33.924,9.664,42.355,25.218c7.794,14.376,7.794,31.541,0,45.918c-8.432,15.555-24.662,25.218-42.355,25.218H59.776   C62.074,176.843,63.825,169.642,65.084,162.371z M25.832,216.189c-3.56,0-6.457-2.897-6.457-6.457s2.897-6.457,6.457-6.457h383.352   c24.808,0,47.563-13.548,59.385-35.358c10.927-20.156,10.927-44.224,0-64.38c-11.823-21.81-34.577-35.358-59.385-35.358H45.768   H25.832c-3.56,0-6.457-2.897-6.457-6.457s2.897-6.457,6.457-6.457h386.335c44.367,0,80.463,36.096,80.463,80.463   c0,44.35-36.069,80.435-80.413,80.462H25.832z M42.945,372.924c-15.202-15.214-23.574-35.422-23.574-56.898   c0-44.353,36.07-80.439,80.418-80.466h312.378c0.017,0,0.034-0.001,0.05-0.001h73.956c1.721,0,3.35,0.677,4.552,1.874   c1.228,1.233,1.905,2.862,1.905,4.583c0,3.56-2.897,6.457-6.457,6.457H102.821c-24.815,0-47.571,13.553-59.38,35.36   c-5.339,9.833-8.16,20.965-8.16,32.193c0,11.213,2.82,22.342,8.153,32.178c5.785,10.699,14.376,19.64,24.823,25.843   c6.758,4.034,14.222,6.83,21.955,8.302v13.54C72.362,393.776,55.843,385.821,42.945,372.924z M176.586,450.21l-28.911-15.561   c-1.433-0.771-3.012-1.157-4.591-1.157s-3.157,0.386-4.591,1.157l-28.91,15.561V342.666h67.003V450.21z M490.74,385.455   c1.218,1.218,1.889,2.841,1.889,4.568c0,3.56-2.897,6.457-6.457,6.457H195.957v-12.914h290.216   C487.894,383.566,489.521,384.243,490.74,385.455z M195.957,364.195v-21.529h31.639c5.349,0,9.685-4.336,9.685-9.685   s-4.337-9.685-9.685-9.685h-41.325H99.897c-5.349,0-9.685,4.337-9.685,9.685v29.508c-4.218-1.144-8.283-2.839-12.045-5.086   c-7.457-4.427-13.575-10.795-17.7-18.423c-3.804-7.019-5.815-14.957-5.815-22.955c0-8.009,2.011-15.946,5.818-22.96   c8.424-15.557,24.653-25.222,42.35-25.222h349.396c-2.299,7.043-4.079,14.242-5.345,21.539h-50.034   c-5.349,0-9.685,4.337-9.685,9.685c0,5.349,4.337,9.685,9.685,9.685h47.902c-0.116,2.427-0.19,4.854-0.19,7.272   s0.074,4.844,0.19,7.269h-97.194c-5.349,0-9.685,4.337-9.685,9.685s4.337,9.685,9.685,9.685h99.326   c1.267,7.296,3.046,14.489,5.344,21.529L195.957,364.195L195.957,364.195z" fill="#333333"/><circle cx="197" cy="152" r="9" fill="#333333"/></g></g><g transform="matrix(0.13034723699092865 -0.09200981259346008 0.09200981259346008 0.13034723699092865 239.07647705078125 192.18556213378906)" id="L1_12"><path d="M326.33,335.464 326.33,395.011 185.669,395.011 185.669,335.464 233.99,335.464   278.008,335.464z" fill="#f7b239"/><path d="M213.575,335.464 213.575,395.011 185.669,395.011 185.669,335.464 195.255,335.464   203.989,335.464z" fill="#e09b2d"/><path d="M358.358,395.011 358.358,502.904 153.64,502.904 153.64,395.011 185.669,395.011   326.33,395.011z" fill="#f95428"/><path d="M182.056,395.011 182.056,502.904 153.64,502.904 153.64,395.011 158.085,395.011   177.61,395.011z" fill="#e54728"/><path d="M171.145,203.398l-0.012,0.012h-51.461c-22.597,0-41.909-16.232-45.788-38.466L61.628,94.765  c-4.958-28.428,16.923-54.468,45.776-54.468h13.723c0.715,10.317,1.758,20.427,3.14,30.307h-16.851  c-6.546,0-10.559,3.613-12.365,5.758c-1.818,2.158-4.679,6.74-3.552,13.19l12.244,70.179c1.346,7.746,8.05,13.371,15.929,13.371  h34.138C159.083,184.098,164.89,194.245,171.145,203.398z" fill="#e09b2d"/><g><path d="M404.582,40.297c28.864,0,50.746,26.04,45.788,54.468l-12.256,70.179   c-3.891,22.233-23.203,38.466-45.776,38.466h-51.461l-0.012-0.012c6.255-9.153,12.05-19.3,17.324-30.295h0.012h34.138   c7.868,0,14.572-5.625,15.917-13.371l12.268-70.191c1.115-6.437-1.746-11.02-3.564-13.165c-1.806-2.158-5.819-5.77-12.377-5.77   h-16.839c1.37-9.88,2.412-19.991,3.128-30.307C390.871,40.297,404.582,40.297,404.582,40.297z" fill="#f7b239"/><path d="M278.008,254.568v80.896H233.99v-80.896c7.165,2.134,14.523,3.249,22.015,3.249   C263.497,257.817,270.843,256.702,278.008,254.568z" fill="#f7b239"/></g><path d="M257.217,254.568v80.896H233.99v-80.896c3.781,2.134,7.664,3.249,11.617,3.249  C249.561,257.817,253.436,256.702,257.217,254.568z" fill="#e09b2d"/><path d="M120.072,9.093h271.854c0,10.571-0.364,20.985-1.055,31.204c-0.715,10.317-1.758,20.427-3.128,30.307  c-5.37,38.551-15.651,73.513-29.555,102.498c-5.273,10.995-11.068,21.142-17.324,30.295c-17.833,26.1-39.326,44.163-62.857,51.17  c-7.165,2.134-14.511,3.249-22.003,3.249c-7.492,0-14.85-1.115-22.015-3.249c-23.53-7.007-45.024-25.07-62.845-51.17  c-6.255-9.153-12.062-19.3-17.336-30.295c-13.905-28.986-24.185-63.948-29.543-102.498c-1.382-9.88-2.425-19.991-3.14-30.307  C120.436,30.078,120.072,19.664,120.072,9.093z" fill="#f7b239"/><path d="M247.337,254.568c2.813,2.134,5.71,3.249,8.668,3.249c-7.492,0-14.85-1.115-22.015-3.249  c-23.53-7.007-45.024-25.07-62.845-51.17c-6.255-9.153-12.062-19.3-17.336-30.295c-13.905-28.986-24.185-63.948-29.543-102.498  c-1.382-9.88-2.425-19.991-3.14-30.307c-0.691-10.22-1.055-20.633-1.055-31.204h82.411c0,10.571,0.145,20.985,0.424,31.204  c0.279,10.317,0.691,20.427,1.224,30.307c2.109,38.551,6.158,73.513,11.638,102.498c2.073,10.995,4.364,21.142,6.825,30.295  C229.614,229.498,238.075,247.561,247.337,254.568z" fill="#e09b2d"/><g><path d="M309.716,203.751c-1.968,0-3.947-0.635-5.613-1.945c-3.947-3.103-4.632-8.819-1.529-12.767   c5.267-6.699,10.304-14.425,14.97-22.963c14.698-26.894,25.334-60.672,30.759-97.681c0.729-4.968,5.338-8.402,10.315-7.677   c4.968,0.729,8.406,5.346,7.677,10.315c-5.734,39.118-17.074,74.998-32.795,103.763c-5.149,9.419-10.743,17.993-16.631,25.481   C315.076,202.559,312.409,203.751,309.716,203.751z" fill="#ffffff"/><path d="M300.86,378.27c-5.021,0-9.092-4.071-9.092-9.092v-7.88c0-5.021,4.071-9.092,9.092-9.092   s9.092,4.071,9.092,9.092v7.88C309.952,374.199,305.881,378.27,300.86,378.27z" fill="#ffffff"/><circle cx="360" cy="39" r="9" fill="#ffffff"/><path d="M332.379,482.417c-5.021,0-9.092-4.071-9.092-9.092v-24.852c0-5.021,4.071-9.092,9.092-9.092   s9.092,4.071,9.092,9.092v24.852C341.471,478.346,337.4,482.417,332.379,482.417z" fill="#ffffff"/><circle cx="332" cy="421" r="9" fill="#ffffff"/></g><path d="M447.118,51.016c-10.584-12.59-26.09-19.811-42.538-19.811h-4.085  c0.344-7.315,0.527-14.688,0.527-22.113c0-5.021-4.071-9.092-9.092-9.092H120.068c-5.021,0-9.092,4.071-9.092,9.092  c0,7.424,0.184,14.798,0.527,22.113h-4.094c-16.442,0-31.941,7.219-42.524,19.807C54.3,63.604,49.849,80.118,52.676,96.324  l12.248,70.18c4.655,26.656,27.679,46.004,54.745,46.004h46.733c17.19,23.981,37.097,40.487,58.491,48.603v65.261h-39.221  c-5.021,0-9.092,4.071-9.092,9.092v50.459h-22.939c-5.021,0-9.092,4.071-9.092,9.092V502.91c0,5.021,4.071,9.092,9.092,9.092  h204.714c5.021,0,9.092-4.071,9.092-9.092V395.015c0-5.021-4.071-9.092-9.092-9.092h-22.939v-50.459  c0-5.021-4.071-9.092-9.092-9.092h-39.229v-65.257c21.397-8.114,41.307-24.621,58.5-48.605h46.737  c27.059,0,50.078-19.347,54.732-46.002l12.261-70.181C462.152,80.12,457.702,63.606,447.118,51.016z M395.595,79.695h8.983  c2.728,0,4.445,1.367,5.441,2.557c0.96,1.133,2.008,3.049,1.544,5.722l-12.27,70.201c-0.588,3.381-3.514,5.835-6.96,5.835h-20.089  C382.931,138.612,390.811,110.082,395.595,79.695z M139.753,164.01h-20.085c-3.453,0-6.384-2.454-6.972-5.842L100.45,87.986  c-0.469-2.689,0.583-4.62,1.552-5.769c1.409-1.673,3.23-2.522,5.409-2.522h8.991C121.188,110.082,129.067,138.612,139.753,164.01z   M119.669,194.323c-18.211,0-33.701-13.015-36.833-30.946L70.59,93.198c-1.901-10.902,1.092-22.013,8.214-30.484  c7.12-8.468,17.545-13.324,28.605-13.324h5.309c0.353,4.066,0.759,8.107,1.218,12.122h-6.525c-10.222,0-16.492,5.636-19.318,8.991  c-2.833,3.362-7.322,10.512-5.556,20.611l12.243,70.172c2.103,12.116,12.57,20.908,24.887,20.908h28.493  c1.222,2.411,2.465,4.798,3.742,7.137c0.924,1.691,1.862,3.352,2.808,4.992L119.669,194.323L119.669,194.323z M349.265,493.816  h-186.53v-89.711h186.53V493.816z M317.234,385.92H194.765v-41.367h122.468V385.92z M268.912,326.369h-25.834v-60.454  c4.268,0.651,8.577,0.999,12.922,0.999c4.341,0,8.647-0.348,12.912-0.998V326.369z M256,248.73  c-32.831,0-64.133-24.192-88.14-68.119c-23.787-43.527-37.388-100.909-38.61-162.426h253.498  c-1.221,61.517-14.823,118.899-38.61,162.426C320.132,224.538,288.831,248.73,256,248.73z M441.413,93.195l-12.26,70.18  c-3.131,17.932-18.616,30.947-36.819,30.947h-35.046c0.946-1.64,1.884-3.3,2.808-4.992c1.278-2.338,2.52-4.725,3.742-7.137h28.497  c12.309,0,22.771-8.793,24.874-20.899l12.271-70.204c1.28-7.389-0.756-14.895-5.552-20.553c-2.822-3.371-9.089-9.027-19.349-9.027  h-6.516c0.459-4.015,0.866-8.057,1.218-12.122h5.299c11.067,0,21.499,4.858,28.62,13.328  C440.32,71.188,443.314,82.297,441.413,93.195z" fill="#333333"/></g><g transform="matrix(0.14587102830410004 0.04606454074382782 -0.04606454074382782 0.14587102830410004 206.44949340820312 226.8644256591797)" id="L1_13"><g><rect x="340px" y="240px" width="48px" height="32px" fill="#f7b239"/><rect x="350px" y="9px" width="27px" height="41px" fill="#f7b239"/></g><path d="M196.167,220.405c7.551,9.577,12.05,21.651,12.05,34.786s-4.499,25.221-12.05,34.786  c-10.301,13.039-26.235,21.398-44.134,21.398c-10.663,0-20.638-2.967-29.129-8.13c-16.223-9.855-27.055-27.682-27.055-48.054  c0-20.348,10.832-38.188,27.043-48.042h0.012c8.492-5.162,18.467-8.142,29.129-8.142  C169.932,199.007,185.866,207.378,196.167,220.405z M176.844,255.191c0-13.69-11.109-24.799-24.811-24.799  c-13.702,0-24.799,11.109-24.799,24.799c0,13.702,11.097,24.811,24.799,24.811C165.735,280.002,176.844,268.893,176.844,255.191z" fill="#f95428"/><rect x="355px" y="332px" width="40px" height="44px" fill="#f7b239"/><rect x="259px" y="405px" width="64px" height="48px" fill="#f95428"/><rect x="259px" y="405px" width="27px" height="48px" fill="#e54728"/><path d="M416.151,454.308 416.151,502.954 129.658,502.954 129.658,454.308 259.395,454.308   324.263,454.308z" fill="#2ba5f7"/><path d="M167.497,454.308 167.497,502.954 129.658,502.954 129.658,454.308 146.793,454.308   155.36,454.308z" fill="#2197d8"/><g><path d="M152.032,230.392c13.702,0,24.811,11.109,24.811,24.799c0,13.702-11.109,24.811-24.811,24.811   c-13.702,0-24.799-11.109-24.799-24.811C127.233,241.501,138.33,230.392,152.032,230.392z" fill="#2ba5f7"/><path d="M321.561,104.852v72.854h-0.012h-56.16c-30.227,0-56.449,17.405-69.223,42.699   c-10.301-13.027-26.235-21.398-44.134-21.398c-10.663,0-20.638,2.979-29.129,8.142v-0.012c7.466-22.182,19.986-42.06,36.186-58.247   c27.199-27.212,64.784-44.038,106.301-44.038h56.16H321.561z" fill="#2ba5f7"/><path d="M355.6,377.583v27.947h-90.211c-66.244,0-122.44-42.832-142.487-102.284   c8.492,5.162,18.467,8.13,29.129,8.13c17.9,0,33.833-8.359,44.134-21.398c12.773,25.294,38.996,42.699,69.223,42.699H355.6V377.583   z" fill="#2ba5f7"/></g><rect x="286px" y="104px" width="34px" height="72px" fill="#2197d8"/><path d="M321.561,177.706 321.561,104.852 321.561,50.586 350.872,50.586 378.723,50.586   408.045,50.586 408.045,240.789 389.12,240.789 340.474,240.789 321.561,240.789z" fill="#f95428"/><path d="M321.561,177.706 321.561,104.852 321.561,50.586 331.251,50.586 340.458,50.586   350.151,50.586 350.151,240.789 343.895,240.789 327.813,240.789 321.561,240.789z" fill="#e54728"/><g><path d="M378.65,222.531c-4.996,0-9.046-4.05-9.046-9.046V108.553c0-4.996,4.05-9.046,9.046-9.046   c4.996,0,9.046,4.05,9.046,9.046v104.932C387.697,218.481,383.646,222.531,378.65,222.531z" fill="#ffffff"/><path d="M330.323,389.189c-4.996,0-9.046-4.05-9.046-9.046v-21.71c0-4.996,4.05-9.046,9.046-9.046   c4.996,0,9.046,4.05,9.046,9.046v21.71C339.37,385.138,335.319,389.189,330.323,389.189z" fill="#ffffff"/><circle cx="378" cy="76" r="9" fill="#ffffff"/></g><g><path d="M416.152,445.258h-82.848v-30.677h22.301c4.996,0,9.046-4.05,9.046-9.046v-18.907h30.971   c4.996,0,9.046-4.05,9.046-9.046v-44.904c0-4.996-4.05-9.046-9.046-9.046l-130.228,0.002c-24.196,0-46.184-12.554-58.581-33.092   c6.6-10.193,10.452-22.326,10.452-35.348c0-13.022-3.85-25.154-10.45-35.347c12.397-20.536,34.385-33.09,58.581-33.09h47.114   v54.029c0,4.996,4.05,9.046,9.046,9.046h9.873v23.387c0,4.996,4.05,9.046,9.046,9.046h48.649c4.996,0,9.046-4.05,9.046-9.046   v-23.387h9.873c4.996,0,9.046-4.05,9.046-9.046V50.59c0-4.996-4.05-9.046-9.046-9.046h-20.27V18.093h1.259   c4.996,0,9.046-4.05,9.046-9.046S394.028,0,389.032,0h-48.467c-4.996,0-9.046,4.05-9.046,9.046s4.05,9.046,9.046,9.046h1.259   v23.451h-20.27c-4.996,0-9.046,4.05-9.046,9.046v45.221h-47.114c-42.581,0-82.604,16.581-112.696,46.685   c-16.574,16.561-29.419,36.826-37.307,58.764c-17.242,11.751-28.588,31.542-28.588,53.935c0,22.406,11.359,42.207,28.617,53.956   c21,58.442,73.77,98.938,134.924,104.697v31.411H129.659c-4.996,0-9.046,4.05-9.046,9.046v48.649c0,4.996,4.05,9.046,9.046,9.046   h286.493c4.996,0,9.046-4.05,9.046-9.046v-48.649C425.198,449.309,421.148,445.258,416.152,445.258z M386.577,368.536h-21.925   v-26.811h21.925V368.536z M380.078,264.174h-30.556v-14.34h30.556V264.174z M359.918,18.093h9.762v23.451h-9.762V18.093z    M330.602,59.636h20.27h27.854h20.27v172.104h-9.873h-48.649h-9.873L330.602,59.636L330.602,59.636z M165.492,155.291   c26.677-26.689,62.157-41.388,99.903-41.388h47.114v54.761h-47.114c-28.667,0-54.881,13.923-70.956,37.024   c-11.413-9.789-26.224-15.724-42.403-15.724c-4.318,0-8.535,0.432-12.62,1.236C146.147,177.994,154.972,165.803,165.492,155.291z    M104.897,255.195c0-25.992,21.146-47.138,47.139-47.138c25.992,0,47.138,21.146,47.138,47.138s-21.146,47.139-47.138,47.139   C126.043,302.334,104.897,281.188,104.897,255.195z M139.381,319.184c4.096,0.809,8.325,1.242,12.655,1.242   c16.18,0,30.99-5.934,42.403-15.724c16.075,23.101,42.289,37.025,70.957,37.025h81.161l0.004,54.761h-81.164   C211.57,396.489,163.175,366.13,139.381,319.184z M268.439,414.582h46.773v30.676h-46.773V414.582L268.439,414.582z    M407.105,493.907h-268.4v-30.556h268.4V493.907z" fill="#333333"/><path d="M152.036,289.046c18.666,0,33.852-15.186,33.852-33.852s-15.186-33.85-33.852-33.85   s-33.852,15.186-33.852,33.85C118.184,273.861,133.37,289.046,152.036,289.046z M152.036,239.437   c8.689,0,15.759,7.069,15.759,15.758c0,8.689-7.069,15.759-15.759,15.759s-15.759-7.069-15.759-15.759   C136.277,246.507,143.347,239.437,152.036,239.437z" fill="#333333"/></g></g><g transform="matrix(0.08787062764167786 -0.08787062764167786 0.08787062764167786 0.08787062764167786 -27.94157600402832 297.9979553222656)" id="L1_14"><path d="M401.837,193.594c0.105,1.292,0.151,2.584,0.151,3.899c0,27.537-22.335,49.86-49.872,49.86  c-12.36,0-23.673-4.504-32.391-11.965L401.837,193.594z" fill="#f7b239"/><path d="M363.615,105.197c35.743,2.91,69.181,23.731,86.639,58.031l2.316,4.539l-50.733,25.826  l-82.111,41.795l-57.623,29.33l-2.304-4.539c-17.458-34.299-14.618-73.592,4.05-104.202L363.615,105.197z" fill="#f95428"/><path d="M308.208,237.866c-17.645-34.668-15.424-74.223,2.429-105.703l-46.788,23.814  c-18.669,30.61-21.508,69.902-4.05,104.202l2.304,4.539l47.471-24.162L308.208,237.866z" fill="#e54728"/><path d="M330.084,39.299l33.531,65.899l-99.767,50.78l-15.91-31.25L232.086,93.57l-1.769-3.48  c-4.143-8.135-6.099-16.806-6.099-25.349c0-20.391,11.173-40.049,30.587-49.93C282.354,0.786,316.059,11.75,330.084,39.299z" fill="#f95428"/><path d="M280.526,109.597L264.674,78.44l-1.769-3.48c-4.143-8.135-6.099-16.806-6.099-25.349  c0-15.173,6.195-29.934,17.36-40.568c-6.57,0.711-13.124,2.593-19.362,5.768c-19.413,9.881-30.587,29.539-30.587,49.93  c0,8.543,1.955,17.214,6.099,25.349l1.769,3.48l15.852,31.157l15.91,31.25l32-16.287L280.526,109.597z" fill="#e54728"/><path d="M132.796,452.381 177.721,452.381 245.11,452.381 281.748,452.381 281.748,503.266   59.437,503.266 59.437,452.381 96.285,452.381z" fill="#f95428"/><path d="M74.373,452.381 83.52,452.381 97.241,452.381 104.7,452.381 104.7,503.266 59.437,503.266   59.437,452.381 66.939,452.381z" fill="#e54728"/><g><path d="M247.938,124.727c-8.776,4.97-27.072,16.294-47.288,34.544   c-12.686,11.441-26.117,25.617-38.443,42.644c-22.893,31.646-37.57,66.993-43.622,105.075c-2.13,13.373-3.189,27.13-3.189,41.224   c0,32.996,5.819,67.854,17.4,104.167H96.285c-15.666-53.585-19.716-104.574-12.011-151.909c7.1-43.68,24.127-84.171,50.594-120.333   c17.225-23.534,36.15-42.086,53.038-56.064c19.076-15.805,35.58-25.757,44.169-30.505h0.012L247.938,124.727z" fill="#f7b239"/><rect x="177px" y="417px" width="67px" height="34px" fill="#f7b239"/></g><g><rect x="177px" y="417px" width="28px" height="34px" fill="#e09b2d"/><path d="M247.938,124.727c-8.776,4.97-27.072,16.294-47.288,34.544l-12.744-35.196   c19.076-15.805,35.58-25.757,44.169-30.505h0.012L247.938,124.727z" fill="#e09b2d"/></g><g><path d="M410.097,165.466c-2.243,0-4.484-0.859-6.189-2.575c-11.484-11.55-26.885-18.652-43.367-19.998   c-4.804-0.392-8.382-4.605-7.99-9.41c0.392-4.804,4.604-8.385,9.411-7.99c20.62,1.683,39.914,10.594,54.326,25.088   c3.4,3.419,3.383,8.946-0.035,12.344C414.549,164.62,412.322,165.466,410.097,165.466z" fill="#ffffff"/><path d="M312.094,76.829c-3.179,0-6.244-1.743-7.785-4.771l-7.938-15.595   c-3.118-6.123-9.333-9.928-16.22-9.928c-2.842,0-5.598,0.668-8.187,1.987c-4.296,2.188-9.552,0.478-11.739-3.819   c-2.187-4.296-0.477-9.552,3.819-11.739c5.066-2.579,10.485-3.886,16.107-3.886c13.489,0,25.666,7.459,31.777,19.466l7.938,15.595   c2.187,4.297,0.477,9.553-3.819,11.739C314.778,76.523,313.426,76.829,312.094,76.829z" fill="#ffffff"/><path d="M257.167,488.88c-4.822,0-8.729-3.908-8.729-8.729v-4.655c0-4.821,3.907-8.729,8.729-8.729   c4.822,0,8.729,3.908,8.729,8.729v4.655C265.896,484.972,261.989,488.88,257.167,488.88z" fill="#ffffff"/><circle cx="325" cy="93" r="8" fill="#ffffff"/></g><path d="M460.348,163.808l-2.308-4.534c-17.585-34.547-50.535-57.549-88.798-62.275l-31.384-61.654  C321.676,3.55,282.646-9.151,250.845,7.033c-15.402,7.84-26.83,21.209-32.176,37.643c-4.891,15.034-4.141,30.982,2.02,45.383  c-20.744,12.419-59.722,39.644-92.863,84.921c-27.291,37.291-44.842,79.04-52.164,124.086c-7.362,45.227-4.281,93.818,9.141,144.59  H59.432c-4.822,0-8.729,3.908-8.729,8.729v50.885c0,4.821,3.907,8.729,8.729,8.729h222.321c4.822,0,8.729-3.908,8.729-8.729v-50.885  c0-4.821-3.907-8.729-8.729-8.729h-27.909v-25.873c0-4.821-3.907-8.729-8.729-8.729h-67.399c-4.822,0-8.729,3.908-8.729,8.729  v25.873h-29.754c-10.022-33.183-15.105-65.263-15.105-95.446c0-13.609,1.037-27.017,3.081-39.856  c5.833-36.709,19.988-70.8,42.073-101.328c26.173-36.185,57.378-58.948,75.115-70.027l9.518,18.699  c-18.693,33.719-19.483,73.894-1.898,108.443l2.308,4.534c1.541,3.028,4.607,4.772,7.785,4.771c1.333,0,2.685-0.306,3.953-0.951  l52.72-26.835c9.751,6.75,21.378,10.425,33.329,10.425c31.847,0,57.824-25.535,58.566-57.201l45.85-23.338  c2.062-1.05,3.624-2.877,4.34-5.079C461.583,168.265,461.398,165.871,460.348,163.808z M273.023,494.541H68.161v-33.426h204.863  v33.426H273.023z M186.446,426.513h49.941v17.144h-49.941V426.513z M155.138,196.796c-23.706,32.769-38.904,69.381-45.17,108.818  c-2.189,13.74-3.298,28.071-3.298,42.598c0,30.349,4.841,62.408,14.37,95.446h-18.153c-13.805-50.013-17.174-97.684-9.994-141.788  c6.876-42.307,23.369-81.529,49.02-116.578c30.768-42.034,66.774-67.563,86.572-79.552l7.964,15.647  C217.747,132.924,183.618,157.422,155.138,196.796z M238.093,86.127c-5.724-11.247-6.726-24.049-2.822-36.05  s12.247-21.762,23.495-27.486c6.738-3.43,14.035-5.165,21.382-5.165c4.917,0,9.857,0.776,14.668,2.342  c12.001,3.905,21.761,12.249,27.486,23.495l29.58,58.11l-84.209,42.863L238.093,86.127z M352.113,238.629  c-4.95,0-9.821-0.899-14.39-2.607l54.019-27.497C386.908,225.864,370.978,238.629,352.113,238.629z M265.983,252.949  c-13.516-29.11-12.019-62.452,4.096-90.347l95.233-48.474c32.038,3.385,59.877,21.795,75.459,49.851L265.983,252.949z" fill="#333333"/></g><g transform="matrix(0.13975326716899872 0 0 0.13975326716899872 73.22315979003906 105.22314453125)" id="L1_15"><path d="M356.648,9.866 432.636,85.867 356.648,85.867z" fill="#e09b2d"/><g><rect x="127px" y="111px" width="56px" height="50px" fill="#f95428"/><rect x="127px" y="203px" width="56px" height="50px" fill="#f95428"/></g><path d="M432.636,85.867v416.265H79.361V9.866h277.286v76.001H432.636z M183.648,436.879v-50.084h-56.57  v50.084H183.648z M183.648,345.261v-50.084h-56.57v50.084H183.648z M183.648,253.631v-50.084h-56.57v50.084H183.648z   M183.648,162.013v-50.084h-56.57v50.084H183.648z" fill="#f7b239"/><g><rect x="127px" y="386px" width="56px" height="50px" fill="#f95428"/><rect x="127px" y="295px" width="56px" height="50px" fill="#f95428"/></g><g><path d="M400.72,475.399c-5.45,0-9.867-4.418-9.867-9.867v-313.11c0-5.449,4.416-9.867,9.867-9.867   c5.451,0,9.867,4.418,9.867,9.867v313.11C410.587,470.981,406.169,475.399,400.72,475.399z" fill="#ffffff"/><circle cx="400" cy="119" r="9" fill="#ffffff"/></g><g><path d="M439.615,78.892L363.627,2.89c-1.85-1.85-4.36-2.89-6.978-2.89H79.363   c-5.45,0-9.867,4.418-9.867,9.867v492.266c0,5.449,4.416,9.867,9.867,9.867h353.275c5.45,0,9.867-4.418,9.867-9.867V85.868   C442.504,83.252,441.465,80.743,439.615,78.892z M366.516,33.691l42.304,42.311h-42.304V33.691z M89.23,492.266V19.734h257.554   v66.135c0,5.449,4.416,9.867,9.867,9.867h66.121v396.531H89.23z" fill="#333333"/><path d="M183.645,102.063h-56.57c-5.45,0-9.867,4.418-9.867,9.867v50.082c0,5.449,4.416,9.867,9.867,9.867   h56.57c5.45,0,9.867-4.418,9.867-9.867V111.93C193.512,106.481,189.095,102.063,183.645,102.063z M173.778,152.145h-36.836v-30.348   h36.836V152.145z" fill="#333333"/><path d="M352.557,125.357H232.321c-5.45,0-9.867,4.418-9.867,9.867s4.416,9.867,9.867,9.867h120.237   c5.45,0,9.867-4.418,9.867-9.867S358.008,125.357,352.557,125.357z" fill="#333333"/><path d="M183.645,193.686h-56.57c-5.45,0-9.867,4.418-9.867,9.867v50.082c0,5.449,4.416,9.867,9.867,9.867   h56.57c5.45,0,9.867-4.418,9.867-9.867v-50.082C193.512,198.104,189.095,193.686,183.645,193.686z M173.778,243.768h-36.836V213.42   h36.836V243.768z" fill="#333333"/><path d="M352.557,216.98H232.321c-5.45,0-9.867,4.418-9.867,9.867s4.416,9.867,9.867,9.867h120.237   c5.45,0,9.867-4.418,9.867-9.867S358.008,216.98,352.557,216.98z" fill="#333333"/><path d="M183.645,285.309h-56.57c-5.45,0-9.867,4.418-9.867,9.867v50.082c0,5.449,4.416,9.867,9.867,9.867   h56.57c5.45,0,9.867-4.418,9.867-9.867v-50.082C193.512,289.726,189.095,285.309,183.645,285.309z M173.778,335.39h-36.836v-30.348   h36.836V335.39z" fill="#333333"/><path d="M352.557,308.602H232.321c-5.45,0-9.867,4.418-9.867,9.867s4.416,9.867,9.867,9.867h120.237   c5.45,0,9.867-4.418,9.867-9.867S358.008,308.602,352.557,308.602z" fill="#333333"/><path d="M183.645,376.931h-56.57c-5.45,0-9.867,4.418-9.867,9.867v50.082c0,5.449,4.416,9.867,9.867,9.867   h56.57c5.45,0,9.867-4.418,9.867-9.867v-50.082C193.512,381.349,189.095,376.931,183.645,376.931z M173.778,427.013h-36.836   v-30.348h36.836V427.013z" fill="#333333"/><path d="M352.557,400.225H232.321c-5.45,0-9.867,4.418-9.867,9.867s4.416,9.867,9.867,9.867h120.237   c5.45,0,9.867-4.418,9.867-9.867S358.008,400.225,352.557,400.225z" fill="#333333"/></g></g><g transform="matrix(0.14105230569839478 0.03742204234004021 -0.03742204234004021 0.14105230569839478 11.266754150390625 149.4405975341797)" id="L1_16"><path d="M487.863,289.966c3.224,3.659,5.177,8.472,5.177,13.732c0,11.508-9.331,20.839-20.839,20.839  c-7.448,0-13.99-3.906-17.662-9.79c-2.024-3.201-3.177-6.989-3.177-11.049c0-11.508,9.331-20.839,20.839-20.839  C478.45,282.859,484.051,285.613,487.863,289.966z" fill="#f95428"/><path d="M227.787,443.438c2.518,3.436,4.001,7.684,4.001,12.273c0,11.508-9.331,20.839-20.839,20.839  c-7.966,0-14.896-4.471-18.391-11.049c-1.565-2.918-2.447-6.248-2.447-9.79c0-11.508,9.331-20.827,20.839-20.827  C217.867,434.883,223.998,438.249,227.787,443.438z" fill="#2ba5f7"/><path d="M106.05,126.317c-0.306,0.012-0.612,0.024-0.93,0.024c-11.508,0-20.839-9.319-20.839-20.827  s9.331-20.839,20.839-20.839c0.647,0,1.283,0.035,1.918,0.094c10.613,0.965,18.909,9.884,18.909,20.744  C125.947,116.704,117.122,125.834,106.05,126.317z" fill="#f7b239"/><path d="M512,255.336c0-35.8-37.73-67.574-103.859-87.846c15.518-67.397,6.867-115.955-24.143-133.864  c-31.007-17.898-77.385-1.106-127.998,46.025c-50.606-47.136-96.982-63.925-128.001-46.025  c-13.892,8.022-23.566,22.722-28.255,42.717c-13.797,2.536-24.289,14.645-24.289,29.165c0,13.908,9.624,25.604,22.56,28.796  c1.244,10.544,3.202,21.652,5.847,33.184C37.731,187.761,0,219.535,0,255.336c0,35.794,37.728,67.565,103.858,87.835  C88.35,410.572,97,459.132,127.999,477.034c8.017,4.628,17.179,6.935,27.264,6.935c10.557,0,22.126-2.539,34.437-7.585  c5.393,5.541,12.921,8.993,21.246,8.993c16.354,0,29.661-13.306,29.661-29.661c0-3.448-0.598-6.756-1.684-9.836  c5.675-4.594,11.385-9.563,17.079-14.863c37.335,34.768,72.36,53.026,100.616,53.023c10.049,0,19.248-2.31,27.382-7.005  c31.007-17.906,39.658-66.462,24.144-133.852c16.41-5.036,31.254-10.863,44.298-17.39c5.25,4.701,12.177,7.566,19.762,7.566  c16.354,0,29.661-13.306,29.661-29.661c0-4.678-1.093-9.105-3.03-13.044C507.57,279.434,512,267.583,512,255.336z M494.35,255.336  c0,7.487-2.655,14.982-7.88,22.364c-4.236-2.333-9.098-3.665-14.266-3.665c-16.356,0-29.662,13.307-29.662,29.661  c0,2.373,0.288,4.68,0.818,6.894c-11.665,5.747-24.915,10.924-39.564,15.46c-6.337-22.832-15.035-46.56-25.922-70.715  c10.885-24.16,19.582-47.889,25.918-70.711C459.885,202.037,494.35,228.755,494.35,255.336z M256.001,406.379  c-12.819-13.048-25.393-27.653-37.57-43.621c12.395,0.751,24.966,1.137,37.568,1.137c12.603,0,25.177-0.386,37.579-1.137  C281.4,378.73,268.821,393.333,256.001,406.379z M256.002,104.283c12.82,13.044,25.399,27.65,37.58,43.626  c-24.823-1.494-50.341-1.494-75.154,0C230.604,131.939,243.181,117.333,256.002,104.283z M367.822,234.168  c-5.561-11.144-11.514-22.231-17.803-33.124c-6.325-10.946-12.942-21.636-19.763-31.957c19.928,2.569,38.865,6.152,56.554,10.725  C381.926,197.417,375.569,215.613,367.822,234.168z M204.783,344.06c-9.576-13.705-18.822-28.236-27.509-43.272  c-8.607-14.896-16.567-30.169-23.713-45.452c7.141-15.271,15.101-30.546,23.713-45.462c8.687-15.037,17.933-29.567,27.51-43.272  c33.484-2.884,68.934-2.885,102.443,0c9.576,13.705,18.822,28.235,27.508,43.27c8.611,14.909,16.57,30.185,23.714,45.465  c-7.151,15.291-15.109,30.562-23.713,45.451c-8.686,15.037-17.933,29.567-27.509,43.272  C273.717,346.945,238.267,346.944,204.783,344.06z M161.99,201.046c-6.292,10.897-12.244,21.983-17.803,33.123  c-7.757-18.572-14.118-36.769-18.997-54.357c17.699-4.575,36.64-8.158,56.564-10.726  C174.934,179.409,168.316,190.099,161.99,201.046z M144.186,276.499c5.563,11.146,11.516,22.232,17.805,33.117  c6.325,10.948,12.942,21.636,19.763,31.957c-19.926-2.569-38.866-6.152-56.564-10.725  C130.074,313.252,136.435,295.059,144.186,276.499z M350.019,309.618c6.288-10.882,12.241-21.966,17.804-33.117  c7.745,18.546,14.102,36.74,18.987,54.347c-17.686,4.574-36.625,8.157-56.554,10.725  C337.077,331.253,343.694,320.564,350.019,309.618z M375.174,48.912c23.026,13.297,28.929,56.504,15.953,113.785  c-22.938-5.923-47.836-10.243-74.184-12.896c-15.459-21.494-31.658-40.895-48.278-57.814  C311.784,52.116,352.153,35.628,375.174,48.912z M136.823,48.914c23.027-13.292,63.398,3.197,106.515,43.074  c-16.623,16.931-32.818,36.329-48.27,57.813c-26.341,2.652-51.241,6.972-74.193,12.897c-2.324-10.249-4.067-20.109-5.209-29.473  c11.161-4.263,19.112-15.075,19.112-27.716c0-11.989-7.154-22.332-17.413-27.004C121,64.232,127.52,54.284,136.823,48.914z   M93.105,105.509c0-6.623,5.388-12.011,12.011-12.011c6.623,0,12.011,5.389,12.011,12.011s-5.388,12.011-12.011,12.011  C98.493,117.52,93.105,112.132,93.105,105.509z M17.65,255.336c0-26.581,34.464-53.299,90.558-70.712  c6.332,22.798,15.031,46.525,25.929,70.711c-10.891,24.167-19.593,47.892-25.929,70.703C52.114,308.626,17.65,281.911,17.65,255.336  z M136.825,461.75c-23.017-13.292-28.921-56.501-15.951-113.786c22.95,5.926,47.851,10.245,74.194,12.897  c15.454,21.489,31.656,40.892,48.281,57.824c-5.007,4.638-10.017,8.994-14.989,13.041c-4.894-3.562-10.91-5.67-17.413-5.67  c-16.354,0-29.661,13.306-29.661,29.661c0,1.66,0.144,3.285,0.407,4.873C167.684,466.121,150.418,469.596,136.825,461.75z   M210.945,467.727c-6.623,0-12.011-5.388-12.011-12.011c0-6.623,5.388-12.011,12.011-12.011s12.011,5.388,12.011,12.011  C222.957,462.339,217.569,467.727,210.945,467.727z M375.176,461.749c-23.022,13.286-63.391-3.203-106.511-43.074  c16.62-16.92,32.819-36.32,48.277-57.814c26.351-2.653,51.249-6.973,74.185-12.896C404.103,405.245,398.2,448.453,375.176,461.749z   M472.204,315.707c-6.623,0-12.012-5.388-12.012-12.011c0-6.623,5.389-12.011,12.012-12.011c6.623,0,12.011,5.389,12.011,12.011  C484.216,310.319,478.826,315.707,472.204,315.707z" fill="#333333"/></g><g transform="matrix(0.13545748591423035 0 0 0.13545748591423035 186.32281494140625 -6.67718505859375)" id="L1_17"><path d="M269.979,242.025c3.58,3.58,5.79,8.518,5.79,13.974c0,5.469-2.21,10.407-5.79,13.986  c-3.58,3.58-8.518,5.79-13.974,5.79c-5.456,0-10.407-2.21-13.986-5.79c-3.58-3.58-5.79-8.518-5.79-13.986  c0-5.456,2.21-10.407,5.79-13.986c3.58-3.58,8.53-5.79,13.986-5.79C261.461,236.223,266.411,238.445,269.979,242.025z" fill="#f95428"/><path d="M256.005,9.255c136.272,0,246.732,110.472,246.732,246.745s-110.46,246.745-246.732,246.745  S9.26,392.272,9.26,255.999S119.732,9.255,256.005,9.255z M458.334,255.999c0-111.744-90.585-202.341-202.329-202.341  c-111.756,0-202.341,90.597-202.341,202.341S144.249,458.34,256.005,458.34C367.749,458.34,458.334,367.743,458.334,255.999z" fill="#9ad14b"/><path d="M242.018,269.986c3.58,3.58,8.53,5.79,13.986,5.79c5.456,0,10.394-2.21,13.974-5.79  c3.58-3.58,5.79-8.518,5.79-13.986c0-5.456-2.21-10.394-5.79-13.974c-3.568-3.58-8.518-5.802-13.974-5.802  c-5.456,0-10.407,2.21-13.986,5.79c-3.58,3.58-5.79,8.53-5.79,13.986C236.229,261.468,238.439,266.406,242.018,269.986z   M256.005,53.658c111.744,0,202.329,90.597,202.329,202.341S367.749,458.34,256.005,458.34  c-111.756,0-202.341-90.597-202.341-202.341S144.249,53.658,256.005,53.658z" fill="#f7b239"/><path d="M96.251,255.999c0-104.552,79.302-190.585,181.046-201.227c-6.998-0.732-14.1-1.113-21.292-1.113  c-111.756,0-202.341,90.597-202.341,202.341S144.249,458.34,256.005,458.34c7.192,0,14.294-0.381,21.292-1.113  C175.552,446.585,96.251,360.551,96.251,255.999z" fill="#e09b2d"/><g><path d="M256,44.405c-116.674,0-211.594,94.922-211.594,211.594S139.326,467.594,256,467.594   s211.595-94.922,211.595-211.594S372.674,44.405,256,44.405z M256,449.078c-106.464,0-193.078-86.615-193.078-193.078   S149.537,62.922,256,62.922s193.078,86.615,193.078,193.078S362.464,449.078,256,449.078z" fill="#333333"/><path d="M256,0C114.842,0,0.001,114.841,0.001,256.001S114.842,512.001,256,512.001   c141.16,0,256.001-114.841,256.001-256.001S397.16,0,256,0z M256,493.483c-130.948,0-237.482-106.534-237.482-237.482   S125.052,18.517,256,18.517c130.949,0,237.484,106.534,237.484,237.484S386.949,493.483,256,493.483z" fill="#333333"/><path d="M345.981,152.929l-77.076,77.076c-3.89-1.939-8.27-3.036-12.904-3.036   c-4.632,0-9.009,1.096-12.899,3.033L200.34,187.24c-3.615-3.616-9.477-3.616-13.093,0c-3.616,3.616-3.616,9.477,0,13.093   l42.761,42.761c-1.939,3.89-3.037,8.271-3.037,12.905c0,4.633,1.097,9.014,3.036,12.904l-1.609,1.609   c-3.616,3.616-3.616,9.477,0,13.093c1.807,1.808,4.177,2.712,6.546,2.712s4.739-0.904,6.546-2.712l1.609-1.608   c3.889,1.938,8.268,3.034,12.9,3.034c4.63,0,9.009-1.096,12.898-3.033l1.607,1.607c1.807,1.808,4.177,2.712,6.546,2.712   s4.739-0.904,6.546-2.712c3.616-3.616,3.616-9.477,0-13.093l-1.605-1.605c1.939-3.891,3.037-8.272,3.037-12.906   c0-4.632-1.096-9.012-3.034-12.9l77.077-77.077c3.616-3.616,3.616-9.477,0-13.093C355.458,149.313,349.596,149.313,345.981,152.929   z M245.487,256.001c0-5.797,4.716-10.514,10.513-10.514c5.797,0,10.514,4.717,10.514,10.514c0,5.797-4.716,10.513-10.514,10.513   C250.204,266.513,245.487,261.798,245.487,256.001z" fill="#333333"/><path d="M256,108.482c5.113,0,9.258-4.145,9.258-9.258V80.294c0-5.113-4.145-9.258-9.258-9.258   c-5.113,0-9.258,4.145-9.258,9.258v18.928C246.742,104.337,250.887,108.482,256,108.482z" fill="#333333"/><path d="M256,403.519c-5.113,0-9.258,4.145-9.258,9.258v18.928c0,5.113,4.145,9.258,9.258,9.258   c5.113,0,9.258-4.145,9.258-9.258v-18.928C265.258,407.664,261.114,403.519,256,403.519z" fill="#333333"/><path d="M169.594,124.856c1.715,2.97,4.827,4.63,8.026,4.63c1.57,0,3.163-0.4,4.621-1.242   c4.428-2.557,5.945-8.219,3.389-12.647l-9.465-16.392c-2.557-4.429-8.219-5.945-12.647-3.389s-5.945,8.219-3.389,12.647   L169.594,124.856z" fill="#333333"/><path d="M342.408,387.144c-2.557-4.429-8.222-5.945-12.647-3.389c-4.428,2.557-5.945,8.219-3.389,12.647   l9.465,16.392c1.715,2.97,4.827,4.63,8.026,4.63c1.57,0,3.164-0.4,4.621-1.242c4.428-2.557,5.945-8.219,3.389-12.647   L342.408,387.144z" fill="#333333"/><path d="M124.858,169.594l-16.392-9.465c-4.428-2.558-10.09-1.039-12.647,3.389   c-2.557,4.428-1.039,10.09,3.389,12.647l16.392,9.465c1.458,0.842,3.05,1.242,4.621,1.242c3.2,0,6.312-1.66,8.026-4.63   C130.803,177.813,129.286,172.151,124.858,169.594z" fill="#333333"/><path d="M412.795,335.835l-16.392-9.465c-4.429-2.558-10.091-1.039-12.647,3.389   c-2.557,4.428-1.039,10.091,3.389,12.647l16.392,9.465c1.458,0.842,3.05,1.242,4.621,1.242c3.2,0,6.312-1.66,8.027-4.63   C418.741,344.054,417.223,338.391,412.795,335.835z" fill="#333333"/><path d="M431.706,246.742h-18.928c-5.113,0-9.258,4.145-9.258,9.258c0,5.113,4.145,9.258,9.258,9.258h18.928   c5.113,0,9.258-4.145,9.258-9.258C440.965,250.887,436.819,246.742,431.706,246.742z" fill="#333333"/><path d="M108.482,256.001c0-5.113-4.145-9.258-9.258-9.258H80.295c-5.113,0-9.258,4.145-9.258,9.258   c0,5.113,4.145,9.258,9.258,9.258h18.928C104.337,265.259,108.482,261.114,108.482,256.001z" fill="#333333"/><path d="M391.782,186.872c1.57,0,3.163-0.4,4.621-1.242l16.392-9.465c4.428-2.557,5.945-8.219,3.389-12.647   c-2.557-4.429-8.218-5.945-12.647-3.389l-16.392,9.465c-4.428,2.557-5.945,8.219-3.389,12.647   C385.471,185.212,388.583,186.872,391.782,186.872z" fill="#333333"/><path d="M115.6,326.371l-16.392,9.465c-4.428,2.557-5.945,8.219-3.389,12.647   c1.715,2.97,4.827,4.63,8.026,4.63c1.57,0,3.163-0.4,4.621-1.242l16.392-9.465c4.428-2.557,5.945-8.219,3.389-12.647   C125.69,325.331,120.026,323.815,115.6,326.371z" fill="#333333"/><path d="M329.759,128.245c1.458,0.842,3.05,1.242,4.621,1.242c3.2,0,6.312-1.66,8.027-4.63l9.465-16.392   c2.557-4.428,1.039-10.091-3.389-12.647c-4.429-2.557-10.091-1.039-12.647,3.389l-9.465,16.392   C323.814,120.026,325.331,125.688,329.759,128.245z" fill="#333333"/><path d="M182.241,383.755c-4.429-2.558-10.091-1.041-12.647,3.389l-9.465,16.392   c-2.557,4.428-1.039,10.091,3.389,12.647c1.458,0.842,3.05,1.242,4.621,1.242c3.2,0,6.312-1.66,8.026-4.63l9.465-16.392   C188.187,391.974,186.67,386.311,182.241,383.755z" fill="#333333"/></g><g><path d="M354.99,405.213c-2.9,0-5.754-1.358-7.56-3.902c-2.958-4.17-1.976-9.95,2.195-12.909   c42.947-30.467,68.588-79.962,68.588-132.402c0-69.502-44.253-131.246-110.118-153.643c-4.842-1.646-7.431-6.906-5.785-11.746   c1.646-4.84,6.907-7.43,11.746-5.785c73.374,24.951,122.674,93.74,122.674,171.174c0,58.431-28.557,113.572-76.391,147.506   C358.714,404.657,356.842,405.213,354.99,405.213z" fill="#ffffff"/><circle cx="281" cy="86" r="9" fill="#ffffff"/></g></g><g transform="matrix(0.16796696186065674 0 0 0.16796696186065674 159.02590942382812 136.01768493652344)" id="L1_18"><g><path d="M276.484,234.017 138.543,335.02 8.766,270.008z" fill="#2ba5f7"/><path d="M309.41,247.714 356.022,443.964 223.579,377.619 188.336,359.969 188.336,359.957    288.964,266.663z" fill="#2ba5f7"/></g><g><path d="M503.203,68.039 309.41,247.714 288.964,266.663 288.566,266.23 276.507,234.017    276.484,234.017z" fill="#1e91c4"/><path d="M288.566,266.23 288.964,266.663 188.336,359.957 188.336,359.969 170.487,424.793    137.256,335.955 138.543,335.02 276.484,234.017 276.507,234.017z" fill="#1e91c4"/><path d="M223.579,377.619 170.487,424.793 188.336,359.969z" fill="#1e91c4"/></g><g><path d="M503.203,68.039 276.484,234.017 8.766,270.008z" fill="#2ba5f7"/><path d="M503.227,68.027 356.022,443.964 309.41,247.714 503.203,68.039 503.215,68.027z" fill="#2ba5f7"/></g><g><path d="M373.671,327.46c-1.064,0-2.145-0.195-3.196-0.606c-4.511-1.766-6.737-6.855-4.971-11.367   l55.742-142.356c1.767-4.511,6.857-6.736,11.367-4.971c4.511,1.766,6.737,6.856,4.971,11.367l-55.742,142.356   C380.487,325.344,377.177,327.46,373.671,327.46z" fill="#ffffff"/><circle cx="363" cy="346" r="8" fill="#ffffff"/></g><path d="M509.384,61.784c-2.501-2.463-6.227-3.2-9.476-1.873L5.455,261.892  c-3.186,1.302-5.316,4.345-5.448,7.785s1.759,6.638,4.837,8.18l124.677,62.456l32.758,87.556c1.287,3.439,4.57,5.699,8.214,5.699  c0.131,0,0.263-0.002,0.394-0.008c2.062-0.092,3.95-0.918,5.419-2.224l0.015,0.018l48.644-43.226l127.134,63.683  c1.233,0.618,2.579,0.929,3.929,0.929c1.064,0,2.13-0.194,3.144-0.584c2.302-0.883,4.125-2.695,5.024-4.991l147.2-375.935  C512.674,67.962,511.884,64.247,509.384,61.784z M38.144,274.915l205.361-27.614l-105.824,77.476L38.144,274.915z M75.656,252.167  l364.675-148.966L273.127,225.615L75.656,252.167z M386.11,164.642l-93.692,86.863l-5.365-14.34L386.11,164.642z M304.355,264.365  l38.794,163.338l-139.566-69.911L304.355,264.365z M319.134,250.663l161.953-150.15L358.083,414.656L319.134,250.663z   M147.803,339.112l124.544-91.183l6.162,16.47l-96.135,89.129c-1.197,1.11-2.061,2.531-2.494,4.106l-10.659,38.724L147.803,339.112z   M186.814,398.553l7.146-25.959l14.112,7.068L186.814,398.553z" fill="#333333"/></g><g transform="matrix(0.14399513602256775 0.053998176008462906 -0.053998176008462906 0.14399513602256775 58.985538482666016 233.33518981933594)" id="L1_19"><path d="M503.345,96.741v304.741c0,6.223-5.045,11.267-11.267,11.267h-88.708v-29.439h69.671V348.62V85.474  h19.037C498.3,85.474,503.345,90.519,503.345,96.741z" fill="#2ba5f7"/><path d="M473.041,348.62 473.041,383.311 403.369,383.311 346.224,383.311 293.235,383.311   256.003,383.311 256.003,348.62z" fill="#e09b2d"/><path d="M473.041,85.474V348.62H256.003V81.11c0-16.763,13.588-30.339,30.339-30.339h186.698V85.474z" fill="#f7b239"/><path d="M403.369,412.75 403.369,461.225 374.797,443.92 346.224,461.225 346.224,412.75   346.224,383.311 403.369,383.311z" fill="#f95428"/><g><rect x="293px" y="383px" width="52px" height="29px" fill="#2ba5f7"/><path d="M293.235,383.311 293.235,412.75 218.772,412.75 218.772,383.311 256.003,383.311z" fill="#2ba5f7"/></g><path d="M256.003,348.62 256.003,383.311 218.772,383.311 38.966,383.311 38.966,348.62z" fill="#e09b2d"/><path d="M256.003,81.11v267.51H38.966V85.474V50.771h186.698C242.416,50.771,256.003,64.347,256.003,81.11z" fill="#f7b239"/><g><rect x="38px" y="50px" width="26px" height="297px" fill="#e09b2d"/><path d="M286.342,50.771v297.075h-30.339V81.11c0-6.061,1.766-11.695,4.837-16.428L286.342,50.771z" fill="#e09b2d"/></g><path d="M218.772,383.311v29.439H19.929c-6.223,0-11.267-5.045-11.267-11.267V96.741  c0-6.223,5.045-11.267,11.267-11.267h19.037V348.62v34.691H218.772z" fill="#2197d8"/><g><path d="M444.179,316.674c-4.782,0-8.658-3.877-8.658-8.658V110.613c0-4.782,3.877-8.658,8.658-8.658   c4.782,0,8.658,3.877,8.658,8.658v197.401C452.838,312.797,448.962,316.674,444.179,316.674z" fill="#ffffff"/><path d="M226.702,316.674c-4.782,0-8.658-3.877-8.658-8.658V110.613c0-4.782,3.877-8.658,8.658-8.658   s8.658,3.877,8.658,8.658v197.401C235.361,312.797,231.484,316.674,226.702,316.674z" fill="#ffffff"/><path d="M380.814,428.65c-4.782,0-8.658-3.877-8.658-8.658v-14.43c0-4.782,3.877-8.658,8.658-8.658   s8.658,3.877,8.658,8.658v14.43C389.472,424.774,385.595,428.65,380.814,428.65z" fill="#ffffff"/><circle cx="226" cy="79" r="8" fill="#ffffff"/><circle cx="444" cy="80" r="8" fill="#ffffff"/></g><g><path d="M191.935,102.791H91.502c-4.782,0-8.658,3.877-8.658,8.658c0,4.782,3.877,8.658,8.658,8.658h100.433   c4.782,0,8.658-3.877,8.658-8.658C200.593,106.667,196.717,102.791,191.935,102.791z" fill="#333333"/><path d="M191.935,139.5H91.502c-4.782,0-8.658,3.877-8.658,8.658c0,4.782,3.877,8.658,8.658,8.658h100.433   c4.782,0,8.658-3.877,8.658-8.658C200.593,143.377,196.717,139.5,191.935,139.5z" fill="#333333"/><path d="M191.935,176.211H91.502c-4.782,0-8.658,3.877-8.658,8.658c0,4.782,3.877,8.658,8.658,8.658h100.433   c4.782,0,8.658-3.877,8.658-8.658C200.593,180.087,196.717,176.211,191.935,176.211z" fill="#333333"/><path d="M191.935,212.92H91.502c-4.782,0-8.658,3.877-8.658,8.658c0,4.782,3.877,8.658,8.658,8.658h100.433   c4.782,0,8.658-3.877,8.658-8.658C200.593,216.796,196.717,212.92,191.935,212.92z" fill="#333333"/><path d="M191.935,249.629H91.502c-4.782,0-8.658,3.877-8.658,8.658s3.877,8.658,8.658,8.658h100.433   c4.782,0,8.658-3.877,8.658-8.658S196.717,249.629,191.935,249.629z" fill="#333333"/><path d="M191.935,286.34H91.502c-4.782,0-8.658,3.877-8.658,8.658s3.877,8.658,8.658,8.658h100.433   c4.782,0,8.658-3.877,8.658-8.658S196.717,286.34,191.935,286.34z" fill="#333333"/><path d="M320.072,120.108h100.433c4.782,0,8.658-3.877,8.658-8.658c0-4.782-3.877-8.658-8.658-8.658H320.072   c-4.782,0-8.658,3.877-8.658,8.658C311.414,116.231,315.29,120.108,320.072,120.108z" fill="#333333"/><path d="M320.072,156.817h100.433c4.782,0,8.658-3.877,8.658-8.658c0-4.782-3.877-8.658-8.658-8.658H320.072   c-4.782,0-8.658,3.877-8.658,8.658C311.414,152.94,315.29,156.817,320.072,156.817z" fill="#333333"/><path d="M320.072,193.527h100.433c4.782,0,8.658-3.877,8.658-8.658c0-4.782-3.877-8.658-8.658-8.658H320.072   c-4.782,0-8.658,3.877-8.658,8.658C311.414,189.651,315.29,193.527,320.072,193.527z" fill="#333333"/><path d="M320.072,230.237h100.433c4.782,0,8.658-3.877,8.658-8.658c0-4.782-3.877-8.658-8.658-8.658H320.072   c-4.782,0-8.658,3.877-8.658,8.658C311.414,226.36,315.29,230.237,320.072,230.237z" fill="#333333"/><path d="M320.072,266.946h100.433c4.782,0,8.658-3.877,8.658-8.658s-3.877-8.658-8.658-8.658H320.072   c-4.782,0-8.658,3.877-8.658,8.658S315.29,266.946,320.072,266.946z" fill="#333333"/><path d="M320.072,303.656h100.433c4.782,0,8.658-3.877,8.658-8.658s-3.877-8.658-8.658-8.658H320.072   c-4.782,0-8.658,3.877-8.658,8.658S315.29,303.656,320.072,303.656z" fill="#333333"/><path d="M492.074,76.811h-10.375V50.768c0-4.782-3.877-8.658-8.658-8.658H286.346   c-12.246,0-23.187,5.679-30.342,14.536c-7.155-8.857-18.096-14.536-30.342-14.536H38.966c-4.782,0-8.658,3.877-8.658,8.658v26.043   H19.926C8.939,76.811,0,85.75,0,96.737v304.741c0,10.987,8.939,19.926,19.926,19.926h317.64v39.827c0,3.126,1.685,6.01,4.409,7.544   c1.321,0.743,2.786,1.114,4.25,1.114c1.556,0,3.11-0.419,4.487-1.254l24.084-14.597l24.083,14.597   c2.674,1.621,6.014,1.673,8.737,0.14c2.723-1.534,4.409-4.418,4.409-7.544v-39.827h80.049c10.987,0,19.926-8.939,19.926-19.926   V96.737C512,85.75,503.061,76.811,492.074,76.811z M264.662,374.651v-17.376h199.72v17.376H264.662z M47.625,357.275h199.72v17.376   H47.625C47.625,374.651,47.625,357.275,47.625,357.275z M284.572,391.967v12.119H227.43v-12.119H284.572z M286.346,59.426h178.036   v280.532h-199.72V81.11C264.662,69.153,274.389,59.426,286.346,59.426z M47.625,59.426h178.036   c11.957,0,21.684,9.727,21.684,21.684v258.848H47.625C47.625,339.958,47.625,59.426,47.625,59.426z M17.317,401.478V96.737   c0-1.438,1.171-2.609,2.609-2.609h10.382v289.181c0,4.782,3.877,8.658,8.658,8.658h171.147v12.119H19.926   C18.487,404.087,17.317,402.916,17.317,401.478z M301.888,404.087v-12.119h35.678v12.119H301.888z M394.709,445.858l-15.425-9.349   c-2.758-1.672-6.217-1.672-8.975,0l-15.426,9.349v-53.891h39.826v53.891H394.709z M494.683,401.478   c0,1.438-1.171,2.609-2.609,2.609h-80.049v-12.119h61.015c4.782,0,8.658-3.877,8.658-8.658V94.128h10.375   c1.438,0,2.609,1.171,2.609,2.609V401.478z" fill="#333333"/></g></g><g transform="matrix(0.19068285822868347 0.03873245790600777 -0.03873245790600777 0.19068285822868347 113.13746643066406 184.28919982910156)" id="L1_20"><g><path d="M432.596,313.568 458.085,357.719 407.107,357.719z" fill="#f7b239"/><path d="M432.596,272.011c11.476,0,20.773,9.309,20.773,20.784c0,11.464-9.297,20.773-20.773,20.773   s-20.773-9.309-20.773-20.773C411.823,281.319,421.12,272.011,432.596,272.011z" fill="#f7b239"/></g><g><rect x="432px" y="166px" width="70px" height="32px" fill="#666666"/><path d="M432.596,166.406 432.596,199.294 374.6,199.294 137.407,199.294 8.424,199.294    8.424,166.406z" fill="#666666"/><path d="M374.6,199.294v118.911c-16.933-16.776-40.221-27.151-65.946-27.151   c-19.527,0-37.65,5.985-52.651,16.203c-15.013-10.218-33.136-16.203-52.662-16.203c-25.714,0-49.013,10.375-65.934,27.151V199.294   H374.6z" fill="#666666"/></g><path d="M347.613,281.24c-4.652,0-8.421-3.771-8.421-8.421v-45.474c0-4.651,3.769-8.421,8.421-8.421  c4.652,0,8.421,3.771,8.421,8.421v45.474C356.035,277.469,352.265,281.24,347.613,281.24z" fill="#ffffff"/><path d="M503.579,157.982h-62.562v-3.698c0-4.651-3.769-8.421-8.421-8.421c-4.652,0-8.421,3.771-8.421,8.421  v3.698H8.421c-4.651,0-8.421,3.771-8.421,8.421v32.895c0,4.651,3.771,8.421,8.421,8.421h120.562v110.486  c0,3.399,2.044,6.465,5.181,7.774c1.048,0.437,2.147,0.648,3.238,0.648c2.178,0,4.321-0.846,5.93-2.44  c16.077-15.933,37.389-24.709,60.011-24.709c17.189,0,33.758,5.096,47.917,14.736c2.86,1.947,6.619,1.947,9.479,0  c14.159-9.64,30.728-14.736,47.917-14.736c22.622,0,43.935,8.774,60.01,24.707c2.413,2.393,6.029,3.1,9.168,1.792  c3.137-1.308,5.181-4.375,5.181-7.774V207.719h41.156v57.115c-12.006,3.623-20.776,14.782-20.776,27.955  c0,11.487,6.671,21.441,16.339,26.205l-19.923,34.509c-1.505,2.605-1.505,5.816,0,8.421c1.505,2.605,4.284,4.211,7.293,4.211h50.978  c3.009,0,5.788-1.606,7.293-4.211c1.505-2.605,1.505-5.816,0-8.421l-19.923-34.509c9.668-4.763,16.339-14.718,16.339-26.205  c0-13.172-8.771-24.33-20.776-27.955v-57.115h62.562c4.652,0,8.421-3.771,8.421-8.421v-32.895  C512,161.753,508.229,157.982,503.579,157.982z M421.692,349.293l10.903-18.884l10.903,18.884H421.692z M444.949,292.791  c0,6.812-5.542,12.354-12.355,12.354s-12.355-5.542-12.355-12.354s5.542-12.355,12.355-12.355S444.949,285.978,444.949,292.791z   M366.173,300.356c-16.826-11.521-36.707-17.719-57.517-17.719c-18.694,0-36.784,5.037-52.657,14.616  c-15.873-9.579-33.961-14.616-52.657-14.616c-20.809,0-40.691,6.198-57.517,17.719V207.72h220.347v92.636H366.173z M16.843,190.877  v-16.052h407.33v16.052H16.843z M495.157,190.877h-54.141v-16.052h54.141V190.877z" fill="#333333"/></g><g transform="matrix(0.10507320612668991 0.026268301531672478 -0.026268301531672478 0.10507320612668991 135.82595825195312 310.3765563964844)" id="L1_21"><g><circle cx="191" cy="78" r="22" fill="#f95428"/><circle cx="320" cy="78" r="22" fill="#f95428"/></g><path d="M452.686,9.315v139.103h-15.947H75.258H59.323V9.315H452.686z M342.944,78.866  c0-12.345-10.01-22.356-22.356-22.356s-22.356,10.01-22.356,22.356s10.01,22.356,22.356,22.356S342.944,91.212,342.944,78.866z   M213.777,78.866c0-12.345-10.01-22.356-22.356-22.356c-12.345,0-22.356,10.01-22.356,22.356s10.01,22.356,22.356,22.356  C203.766,101.222,213.777,91.212,213.777,78.866z" fill="#f7b239"/><path d="M436.739,208.033 436.739,502.683 75.258,502.683 75.258,208.033 75.27,208.033   111.424,188.161 147.579,208.033 183.721,188.161 219.875,208.033 256.017,188.161 292.171,208.033 328.313,188.161   364.455,208.033 400.584,188.161z" fill="#e6e6e6"/><path d="M436.739,181.948 436.739,243.434 400.584,223.562 364.455,243.434 328.313,223.562   292.171,243.434 256.017,223.562 219.875,243.434 183.721,223.562 147.579,243.434 111.424,223.562 75.27,243.434 75.258,243.434   75.258,181.948z" fill="#cccccc"/><path d="M436.739,148.418 436.739,208.033 400.584,188.161 364.455,208.033 328.313,188.161   292.171,208.033 256.017,188.161 219.875,208.033 183.721,188.161 147.579,208.033 111.424,188.161 75.27,208.033 75.258,208.033   75.258,148.418z" fill="#e6e6e6"/><path d="M75.258,148.418v24.219h361.481v-24.219H75.258z" fill="#cccccc"/><g><path d="M405.768,478.147c-5.146,0-9.315-4.171-9.315-9.315V289.994c0-5.144,4.169-9.315,9.315-9.315   s9.315,4.171,9.315,9.315v178.839C415.083,473.977,410.914,478.147,405.768,478.147z" fill="#ffffff"/><path d="M418.809,131.651c-5.146,0-9.315-4.171-9.315-9.315V75.763c0-5.144,4.169-9.315,9.315-9.315   s9.315,4.171,9.315,9.315v46.573C428.124,127.48,423.955,131.651,418.809,131.651z" fill="#ffffff"/><circle cx="418" cy="42" r="9" fill="#ffffff"/><circle cx="405" cy="260" r="9" fill="#ffffff"/></g><g><path d="M452.682,0H59.319c-5.144,0-9.315,4.171-9.315,9.315v139.103c0,5.144,4.171,9.315,9.315,9.315h6.627   v344.953c0,5.144,4.171,9.315,9.315,9.315h361.477c5.146,0,9.315-4.171,9.315-9.315V157.733h6.627c5.146,0,9.315-4.171,9.315-9.315   V9.315C461.997,4.171,457.826,0,452.682,0z M68.634,18.63h374.732v120.473H68.634V18.63z M84.576,493.37V213.545l26.843-14.755   l31.667,17.406c2.794,1.535,6.18,1.536,8.975,0l31.661-17.405l31.663,17.405c2.794,1.536,6.18,1.536,8.975,0l31.661-17.405   l31.658,17.405c2.794,1.536,6.181,1.536,8.976,0l31.656-17.404l31.653,17.404c1.397,0.769,2.942,1.153,4.487,1.153   s3.09-0.385,4.487-1.153l31.651-17.404l26.834,14.752v279.826H84.576V493.37z M427.425,192.285l-22.347-12.286   c-2.794-1.536-6.18-1.536-8.977,0l-31.65,17.404l-31.653-17.404c-2.794-1.536-6.181-1.536-8.976,0l-31.656,17.405l-31.658-17.405   c-2.793-1.536-6.181-1.538-8.976,0l-31.661,17.405l-31.663-17.405c-2.794-1.536-6.18-1.536-8.975,0l-31.661,17.405l-31.667-17.405   c-2.794-1.535-6.179-1.536-8.975,0l-22.356,12.288v-34.555h342.847v34.552H427.425z" fill="#333333"/><path d="M191.417,110.537c17.464,0,31.671-14.207,31.671-31.671s-14.208-31.671-31.671-31.671   s-31.671,14.207-31.671,31.671S173.954,110.537,191.417,110.537z M191.417,65.825c7.191,0,13.041,5.85,13.041,13.041   s-5.85,13.041-13.041,13.041c-7.191,0-13.041-5.85-13.041-13.041S184.226,65.825,191.417,65.825z" fill="#333333"/><path d="M320.584,110.537c17.464,0,31.671-14.207,31.671-31.671s-14.207-31.671-31.671-31.671   c-17.464,0-31.671,14.207-31.671,31.671S303.122,110.537,320.584,110.537z M320.584,65.825c7.191,0,13.041,5.85,13.041,13.041   s-5.85,13.041-13.041,13.041s-13.041-5.85-13.041-13.041S313.393,65.825,320.584,65.825z" fill="#333333"/><path d="M293.91,422.276h-21.114V255.229c0-4.28-2.916-8.008-7.069-9.04   c-4.154-1.035-8.474,0.899-10.477,4.682c-11.969,22.607-29.563,37.104-42.214,45.284c-4.32,2.793-5.558,8.56-2.763,12.881   c2.794,4.32,8.561,5.557,12.881,2.763c11.721-7.579,22.167-16.618,31.015-26.765v137.242h-22.356c-5.144,0-9.315,4.171-9.315,9.315   c0,5.144,4.171,9.315,9.315,9.315h62.099c5.146,0,9.315-4.171,9.315-9.315C303.226,426.447,299.054,422.276,293.91,422.276z" fill="#333333"/></g></g><g transform="matrix(0.10524794459342957 -0.07088126987218857 0.07088126987218857 0.10524794459342957 114.91092681884766 72.20215606689453)" id="L1_22"><g><path d="M459.935,432.32 459.935,502.283 52.064,502.283 52.064,432.32 79.932,432.32    115.587,432.32 158.628,432.32 353.371,432.32 396.411,432.32 432.079,432.32z" fill="#f95428"/><path d="M459.935,9.717 459.935,79.693 432.079,79.693 396.411,79.693 115.587,79.693 79.932,79.693    52.064,79.693 52.064,9.717z" fill="#f95428"/></g><g><path d="M116.134,9.717 116.134,79.693 111.759,79.693 106.155,79.693 62.042,79.693 56.441,79.693    52.064,79.693 52.064,9.717z" fill="#e54728"/><path d="M116.134,434.807 116.134,504.783 111.759,504.783 106.155,504.783 62.042,504.783    56.441,504.783 52.064,504.783 52.064,434.807z" fill="#e54728"/></g><path d="M353.371,432.32H158.628c25.251-30.499,59.559-49.272,97.378-49.272S328.133,401.821,353.371,432.32z  " fill="#f7b239"/><g><path d="M256.006,256c77.542,0,140.405,78.942,140.405,176.32h-43.04   c-25.239-30.499-59.546-49.272-97.365-49.272s-72.127,18.773-97.378,49.272h-43.04C115.587,334.942,178.45,256,256.006,256z" fill="#2ba5f7"/><path d="M327.718,179.313H140.152c-15.496-28.348-24.565-62.656-24.565-99.62h280.824   c0,36.964-9.069,71.272-24.565,99.62H327.718z" fill="#2ba5f7"/></g><g><path d="M256.006,256c-48.106,0-90.563-30.369-115.854-76.687c-15.496-28.348-24.565-62.656-24.565-99.62   h76.273c0,36.964,4.146,71.272,11.22,99.62C214.637,225.631,234.032,256,256.006,256z" fill="#2197d8"/><path d="M256.006,256c-32.331,0-59.063,65.713-63.499,151.188c-0.426,8.209-33.879,16.599-33.879,25.132   h-43.04C115.587,334.942,178.45,256,256.006,256z" fill="#2197d8"/></g><path d="M327.718,179.313h44.129C346.556,225.631,304.099,256,256.006,256  c-48.106,0-90.563-30.369-115.854-76.687H327.718z" fill="#f7b239"/><path d="M203.08,179.313C214.637,225.631,234.032,256,256.006,256c-48.106,0-90.563-30.369-115.854-76.687  H203.08z" fill="#e09b2d"/><path d="M459.935,89.41c5.368,0,9.717-4.351,9.717-9.717V9.717c0-5.366-4.349-9.717-9.717-9.717H52.064  c-5.368,0-9.717,4.351-9.717,9.717v69.976c0,5.366,4.349,9.717,9.717,9.717h18.152v333.193H52.064c-5.368,0-9.717,4.351-9.717,9.717  v69.963c0,5.366,4.349,9.717,9.717,9.717h407.873c5.368,0,9.717-4.351,9.717-9.717V432.32c0-5.366-4.349-9.717-9.717-9.717h-18.139  V89.41H459.935z M61.781,19.434h388.439v50.542H61.781V19.434z M357.856,422.603c-27.791-31.81-63.793-49.272-101.851-49.272  c-38.052,0-74.06,17.461-101.862,49.272h-28.611c3.962-87.359,60.964-156.886,130.473-156.886c69.503,0,126.5,69.526,130.46,156.886  H357.856z M330.566,422.603H181.441c21.791-19.371,47.657-29.838,74.565-29.838C282.918,392.765,308.781,403.232,330.566,422.603z   M365.973,169.596H146.025c-12.194-24.12-19.183-51.565-20.477-80.185h260.904C385.156,118.029,378.169,145.473,365.973,169.596z   M354.502,189.03c-24.71,36.129-60.578,57.253-98.496,57.253c-37.926,0-73.798-21.122-98.509-57.253H354.502z M89.648,89.41h16.448  c1.407,33.905,10.145,66.418,25.527,94.559c18.665,34.182,45.604,59.147,76.312,71.974c-21.977,9.144-42.065,24.604-58.823,45.646  c-26.044,32.704-41.155,75.366-43.036,121.013H89.648V89.41z M450.218,492.566H61.781v-50.529h388.439v50.529H450.218z   M422.362,422.603h-16.439c-1.881-45.646-16.992-88.308-43.035-121.013c-16.757-21.043-36.843-36.503-58.818-45.646  c30.702-12.828,57.641-37.792,76.304-71.97c15.384-28.145,24.122-60.658,25.53-94.563h16.461v333.191H422.362z" fill="#333333"/><g><path d="M286.275,222.356c-3.796,0-7.401-2.238-8.963-5.956c-2.078-4.948,0.247-10.643,5.195-12.722   c13.196-5.543,25.684-15.402,36.118-28.511c0.459-0.577,0.907-1.141,1.355-1.731c6.453-8.412,11.964-17.824,16.406-28.011   c2.147-4.918,7.872-7.165,12.792-5.023c4.919,2.146,7.167,7.872,5.023,12.792c-5.072,11.632-11.388,22.409-18.775,32.035   c-0.509,0.67-1.044,1.347-1.594,2.039c-12.637,15.879-27.372,27.427-43.797,34.327   C288.806,222.111,287.531,222.356,286.275,222.356z" fill="#ffffff"/><path d="M355.51,404.88c-4.514,0-8.559-3.161-9.507-7.756c-4.719-22.877-14.184-43.724-27.378-60.289   c-4.887-6.133-10.18-11.539-15.733-16.064c-4.159-3.391-4.782-9.512-1.391-13.671c3.392-4.159,9.51-4.782,13.673-1.391   c6.624,5.4,12.9,11.799,18.652,19.018c15.087,18.943,25.88,42.619,31.211,68.472c1.083,5.256-2.298,10.396-7.555,11.479   C356.821,404.815,356.161,404.88,355.51,404.88z" fill="#ffffff"/><path d="M432.896,64.138c-5.368,0-9.717-4.351-9.717-9.717V34.988c0-5.366,4.349-9.717,9.717-9.717   c5.368,0,9.717,4.351,9.717,9.717v19.433C442.613,59.787,438.263,64.138,432.896,64.138z" fill="#ffffff"/><path d="M432.896,486.736c-5.368,0-9.717-4.351-9.717-9.717v-19.434c0-5.366,4.349-9.717,9.717-9.717   c5.368,0,9.717,4.351,9.717,9.717v19.434C442.613,482.385,438.263,486.736,432.896,486.736z" fill="#ffffff"/><circle cx="355" cy="116" r="9" fill="#ffffff"/></g></g></defs><g fi:class="KUsePattern"><pattern id="pattern_L1_8" width="350" height="350" patternUnits="userSpaceOnUse"><use xlink:href="#L1_8" x="-350" y="-350"/><use xlink:href="#L1_8" x="0" y="-350"/><use xlink:href="#L1_8" x="350" y="-350"/><use xlink:href="#L1_8" x="-350" y="0"/><use xlink:href="#L1_8" x="0" y="0"/><use xlink:href="#L1_8" x="350" y="0"/><use xlink:href="#L1_8" x="-350" y="350"/><use xlink:href="#L1_8" x="0" y="350"/><use xlink:href="#L1_8" x="350" y="350"/></pattern><rect x="0" y="0" width="100%" height="100%" fill="url(#pattern_L1_8)"/></g><g fi:class="KUsePattern"><pattern id="pattern_L1_9" width="350" height="350" patternUnits="userSpaceOnUse"><use xlink:href="#L1_9" x="-350" y="-350"/><use xlink:href="#L1_9" x="0" y="-350"/><use xlink:href="#L1_9" x="350" y="-350"/><use xlink:href="#L1_9" x="-350" y="0"/><use xlink:href="#L1_9" x="0" y="0"/><use xlink:href="#L1_9" x="350" y="0"/><use xlink:href="#L1_9" x="-350" y="350"/><use xlink:href="#L1_9" x="0" y="350"/><use xlink:href="#L1_9" x="350" y="350"/></pattern><rect x="0" y="0" width="100%" height="100%" fill="url(#pattern_L1_9)"/></g><g fi:class="KUsePattern"><pattern id="pattern_L1_10" width="350" height="350" patternUnits="userSpaceOnUse"><use xlink:href="#L1_10" x="-350" y="-350"/><use xlink:href="#L1_10" x="0" y="-350"/><use xlink:href="#L1_10" x="350" y="-350"/><use xlink:href="#L1_10" x="-350" y="0"/><use xlink:href="#L1_10" x="0" y="0"/><use xlink:href="#L1_10" x="350" y="0"/><use xlink:href="#L1_10" x="-350" y="350"/><use xlink:href="#L1_10" x="0" y="350"/><use xlink:href="#L1_10" x="350" y="350"/></pattern><rect x="0" y="0" width="100%" height="100%" fill="url(#pattern_L1_10)"/></g><g fi:class="KUsePattern"><pattern id="pattern_L1_11" width="350" height="350" patternUnits="userSpaceOnUse"><use xlink:href="#L1_11" x="-350" y="-350"/><use xlink:href="#L1_11" x="0" y="-350"/><use xlink:href="#L1_11" x="350" y="-350"/><use xlink:href="#L1_11" x="-350" y="0"/><use xlink:href="#L1_11" x="0" y="0"/><use xlink:href="#L1_11" x="350" y="0"/><use xlink:href="#L1_11" x="-350" y="350"/><use xlink:href="#L1_11" x="0" y="350"/><use xlink:href="#L1_11" x="350" y="350"/></pattern><rect x="0" y="0" width="100%" height="100%" fill="url(#pattern_L1_11)"/></g><g fi:class="KUsePattern"><pattern id="pattern_L1_12" width="350" height="350" patternUnits="userSpaceOnUse"><use xlink:href="#L1_12" x="-350" y="-350"/><use xlink:href="#L1_12" x="0" y="-350"/><use xlink:href="#L1_12" x="350" y="-350"/><use xlink:href="#L1_12" x="-350" y="0"/><use xlink:href="#L1_12" x="0" y="0"/><use xlink:href="#L1_12" x="350" y="0"/><use xlink:href="#L1_12" x="-350" y="350"/><use xlink:href="#L1_12" x="0" y="350"/><use xlink:href="#L1_12" x="350" y="350"/></pattern><rect x="0" y="0" width="100%" height="100%" fill="url(#pattern_L1_12)"/></g><g fi:class="KUsePattern"><pattern id="pattern_L1_13" width="350" height="350" patternUnits="userSpaceOnUse"><use xlink:href="#L1_13" x="-350" y="-350"/><use xlink:href="#L1_13" x="0" y="-350"/><use xlink:href="#L1_13" x="350" y="-350"/><use xlink:href="#L1_13" x="-350" y="0"/><use xlink:href="#L1_13" x="0" y="0"/><use xlink:href="#L1_13" x="350" y="0"/><use xlink:href="#L1_13" x="-350" y="350"/><use xlink:href="#L1_13" x="0" y="350"/><use xlink:href="#L1_13" x="350" y="350"/></pattern><rect x="0" y="0" width="100%" height="100%" fill="url(#pattern_L1_13)"/></g><g fi:class="KUsePattern"><pattern id="pattern_L1_14" width="350" height="350" patternUnits="userSpaceOnUse"><use xlink:href="#L1_14" x="-350" y="-350"/><use xlink:href="#L1_14" x="0" y="-350"/><use xlink:href="#L1_14" x="350" y="-350"/><use xlink:href="#L1_14" x="-350" y="0"/><use xlink:href="#L1_14" x="0" y="0"/><use xlink:href="#L1_14" x="350" y="0"/><use xlink:href="#L1_14" x="-350" y="350"/><use xlink:href="#L1_14" x="0" y="350"/><use xlink:href="#L1_14" x="350" y="350"/></pattern><rect x="0" y="0" width="100%" height="100%" fill="url(#pattern_L1_14)"/></g><g fi:class="KUsePattern"><pattern id="pattern_L1_15" width="350" height="350" patternUnits="userSpaceOnUse"><use xlink:href="#L1_15" x="-350" y="-350"/><use xlink:href="#L1_15" x="0" y="-350"/><use xlink:href="#L1_15" x="350" y="-350"/><use xlink:href="#L1_15" x="-350" y="0"/><use xlink:href="#L1_15" x="0" y="0"/><use xlink:href="#L1_15" x="350" y="0"/><use xlink:href="#L1_15" x="-350" y="350"/><use xlink:href="#L1_15" x="0" y="350"/><use xlink:href="#L1_15" x="350" y="350"/></pattern><rect x="0" y="0" width="100%" height="100%" fill="url(#pattern_L1_15)"/></g><g fi:class="KUsePattern"><pattern id="pattern_L1_16" width="350" height="350" patternUnits="userSpaceOnUse"><use xlink:href="#L1_16" x="-350" y="-350"/><use xlink:href="#L1_16" x="0" y="-350"/><use xlink:href="#L1_16" x="350" y="-350"/><use xlink:href="#L1_16" x="-350" y="0"/><use xlink:href="#L1_16" x="0" y="0"/><use xlink:href="#L1_16" x="350" y="0"/><use xlink:href="#L1_16" x="-350" y="350"/><use xlink:href="#L1_16" x="0" y="350"/><use xlink:href="#L1_16" x="350" y="350"/></pattern><rect x="0" y="0" width="100%" height="100%" fill="url(#pattern_L1_16)"/></g><g fi:class="KUsePattern"><pattern id="pattern_L1_17" width="350" height="350" patternUnits="userSpaceOnUse"><use xlink:href="#L1_17" x="-350" y="-350"/><use xlink:href="#L1_17" x="0" y="-350"/><use xlink:href="#L1_17" x="350" y="-350"/><use xlink:href="#L1_17" x="-350" y="0"/><use xlink:href="#L1_17" x="0" y="0"/><use xlink:href="#L1_17" x="350" y="0"/><use xlink:href="#L1_17" x="-350" y="350"/><use xlink:href="#L1_17" x="0" y="350"/><use xlink:href="#L1_17" x="350" y="350"/></pattern><rect x="0" y="0" width="100%" height="100%" fill="url(#pattern_L1_17)"/></g><g fi:class="KUsePattern"><pattern id="pattern_L1_18" width="350" height="350" patternUnits="userSpaceOnUse"><use xlink:href="#L1_18" x="-350" y="-350"/><use xlink:href="#L1_18" x="0" y="-350"/><use xlink:href="#L1_18" x="350" y="-350"/><use xlink:href="#L1_18" x="-350" y="0"/><use xlink:href="#L1_18" x="0" y="0"/><use xlink:href="#L1_18" x="350" y="0"/><use xlink:href="#L1_18" x="-350" y="350"/><use xlink:href="#L1_18" x="0" y="350"/><use xlink:href="#L1_18" x="350" y="350"/></pattern><rect x="0" y="0" width="100%" height="100%" fill="url(#pattern_L1_18)"/></g><g fi:class="KUsePattern"><pattern id="pattern_L1_19" width="350" height="350" patternUnits="userSpaceOnUse"><use xlink:href="#L1_19" x="-350" y="-350"/><use xlink:href="#L1_19" x="0" y="-350"/><use xlink:href="#L1_19" x="350" y="-350"/><use xlink:href="#L1_19" x="-350" y="0"/><use xlink:href="#L1_19" x="0" y="0"/><use xlink:href="#L1_19" x="350" y="0"/><use xlink:href="#L1_19" x="-350" y="350"/><use xlink:href="#L1_19" x="0" y="350"/><use xlink:href="#L1_19" x="350" y="350"/></pattern><rect x="0" y="0" width="100%" height="100%" fill="url(#pattern_L1_19)"/></g><g fi:class="KUsePattern"><pattern id="pattern_L1_20" width="350" height="350" patternUnits="userSpaceOnUse"><use xlink:href="#L1_20" x="-350" y="-350"/><use xlink:href="#L1_20" x="0" y="-350"/><use xlink:href="#L1_20" x="350" y="-350"/><use xlink:href="#L1_20" x="-350" y="0"/><use xlink:href="#L1_20" x="0" y="0"/><use xlink:href="#L1_20" x="350" y="0"/><use xlink:href="#L1_20" x="-350" y="350"/><use xlink:href="#L1_20" x="0" y="350"/><use xlink:href="#L1_20" x="350" y="350"/></pattern><rect x="0" y="0" width="100%" height="100%" fill="url(#pattern_L1_20)"/></g><g fi:class="KUsePattern"><pattern id="pattern_L1_21" width="350" height="350" patternUnits="userSpaceOnUse"><use xlink:href="#L1_21" x="-350" y="-350"/><use xlink:href="#L1_21" x="0" y="-350"/><use xlink:href="#L1_21" x="350" y="-350"/><use xlink:href="#L1_21" x="-350" y="0"/><use xlink:href="#L1_21" x="0" y="0"/><use xlink:href="#L1_21" x="350" y="0"/><use xlink:href="#L1_21" x="-350" y="350"/><use xlink:href="#L1_21" x="0" y="350"/><use xlink:href="#L1_21" x="350" y="350"/></pattern><rect x="0" y="0" width="100%" height="100%" fill="url(#pattern_L1_21)"/></g><g fi:class="KUsePattern"><pattern id="pattern_L1_22" width="350" height="350" patternUnits="userSpaceOnUse"><use xlink:href="#L1_22" x="-350" y="-350"/><use xlink:href="#L1_22" x="0" y="-350"/><use xlink:href="#L1_22" x="350" y="-350"/><use xlink:href="#L1_22" x="-350" y="0"/><use xlink:href="#L1_22" x="0" y="0"/><use xlink:href="#L1_22" x="350" y="0"/><use xlink:href="#L1_22" x="-350" y="350"/><use xlink:href="#L1_22" x="0" y="350"/><use xlink:href="#L1_22" x="350" y="350"/></pattern><rect x="0" y="0" width="100%" height="100%" fill="url(#pattern_L1_22)"/></g></svg>
